<svg width="395" height="41" viewBox="0 0 395 41" fill="none" xmlns="http://www.w3.org/2000/svg">
<path fill-rule="evenodd" clip-rule="evenodd" d="M14.9398 0.848165C4.63954 3.78211 -2.06338 15.1215 0.576985 25.1453C4.85764 41.3949 25.1687 46.3772 36.2667 33.9004C49.7679 18.721 34.619 -4.75629 14.9398 0.848165ZM60.2208 1.02872C51.2573 4.33853 46.3124 11.5162 46.3506 21.1626C46.3746 27.1453 48.4569 31.5565 53.2127 35.7001C59.778 41.4195 68.3666 42.5923 76.024 38.8163C91.3695 31.2479 91.2576 10.0718 75.8308 2.2064C71.6605 0.0808256 64.2941 -0.475597 60.2208 1.02872ZM106.907 0.868682C100.891 2.57817 95.4951 7.89702 93.1334 14.4485C91.6656 18.52 91.673 21.6976 93.1615 26.6357C96.4338 37.4901 108.047 43.3292 119.626 39.9439C124.181 38.6119 131.051 31.8134 132.396 27.3054C137.263 11.0017 123.068 -3.7214 106.907 0.868682ZM156.362 1.09683C148.662 3.81494 144.185 10.9918 144.185 20.6209C144.185 33.2012 151.177 40.8803 162.669 40.9238C170.173 40.9517 176.818 36.5684 178.503 30.4781C178.785 29.463 179.225 27.893 179.484 26.9902C179.892 25.5688 179.558 25.3489 176.996 25.3489C174.722 25.3489 174.039 25.6837 174.039 26.7982C174.039 31.4285 168.043 36.8384 162.911 36.8384C153.225 36.8384 146.976 25.8183 150.283 14.5643C152.187 8.08249 155.296 5.44153 161.552 4.99426C167.423 4.57407 171.702 6.65204 173.093 10.5987C173.793 12.5864 174.422 13.0386 176.483 13.0386C179.372 13.0386 179.704 11.8133 177.8 8.17113C174.218 1.31596 164.669 -1.83547 156.362 1.09683ZM262.967 1.00327C258.693 2.53795 254.878 6.02176 252.779 10.3123C250.395 15.1781 250.092 25.6279 252.2 30.2812C257.491 41.9694 274.033 44.7195 282.083 35.2512L284.33 32.6095V36.3649C284.33 38.4306 284.704 40.1212 285.16 40.1212C285.664 40.1212 285.989 36.4281 285.989 30.6833V21.2454H277.696C272.721 21.2454 269.404 21.5737 269.404 22.0661C269.404 22.5536 272.479 22.8868 276.973 22.8868H284.543L283.997 26.2557C282.909 32.9894 279.609 36.6439 273.033 38.3969C269.064 39.454 265.188 38.8992 261.096 36.6866C252.464 32.0186 250.301 17.3488 256.913 8.31393C260.182 3.84776 264.249 2.10053 270.354 2.53713C276.214 2.9565 279.113 4.79647 281.428 9.56383C283.078 12.9623 285.16 14.1917 285.16 11.7665C285.16 9.6541 282.883 5.97498 280.187 3.73041C275.835 0.106268 268.641 -1.03284 262.967 1.00327ZM183.16 20.3255V40.1212L192.075 40.1162C202.575 40.1113 206.255 39.2586 210.065 35.948C213.702 32.7875 215.502 27.4572 215.502 19.8421C215.502 10.7308 213.185 6.23678 206.794 2.95158C204.123 1.57857 201.504 1.17726 193.319 0.888378L183.16 0.53056V20.3255ZM219.648 20.4248V40.1212H222.136H224.624V33.5541V26.9869L228.087 23.7584L231.551 20.529L238.65 30.3255C245.557 39.8602 245.829 40.1212 248.868 40.1212C250.584 40.1212 251.989 39.925 251.989 39.6846C251.989 39.4449 248.199 34.1909 243.567 28.0087L235.145 16.7686L243.153 9.28233C247.556 5.16496 251.16 1.55559 251.16 1.26179C251.16 0.968806 249.754 0.728345 248.037 0.728345C245.158 0.728345 244.169 1.46614 235.404 10.1662C230.173 15.357 225.609 19.6041 225.259 19.6041C224.909 19.6041 224.624 15.357 224.624 10.1662V0.728345H222.136H219.648V20.4248ZM290.965 20.4248C290.965 35.9267 291.19 40.1835 292.001 39.916C292.791 39.6558 293.038 35.0149 293.038 20.4248C293.038 5.83464 292.791 1.19367 292.001 0.933516C291.19 0.665973 290.965 4.92286 290.965 20.4248ZM325.517 1.27574C325.213 1.57611 324.964 10.4395 324.964 20.9722C324.964 37.4466 325.138 40.1212 326.208 40.1212C327.054 40.1212 327.452 39.2833 327.452 37.5057V34.8901L329.732 36.9952C334.559 41.4499 338.843 42.0908 344.132 39.1495C348.943 36.4732 350.998 31.7223 350.476 24.4871C350.237 21.1847 349.484 17.9553 348.665 16.7185C344.321 10.1564 333.069 9.56957 328.746 15.6787C327.537 17.3866 327.452 16.9541 327.452 9.1182C327.452 1.43413 327.041 -0.232676 325.517 1.27574ZM381.726 1.77308C381.503 2.34755 381.422 11.0878 381.545 21.1962C381.712 35.0091 382.026 39.6599 382.805 39.9168C383.615 40.1835 383.842 35.9398 383.842 20.4929C383.842 7.46288 383.55 0.728345 382.986 0.728345C382.515 0.728345 381.948 1.1986 381.726 1.77308ZM204.219 6.89661C208.1 8.71934 209.907 12.355 210.306 19.1346C210.592 24.0267 210.344 25.5114 208.72 28.5832C205.849 34.0177 203.612 35.2586 195.722 35.7937L188.965 36.2525V20.9525V5.65245H195.268C199.18 5.65245 202.573 6.12434 204.219 6.89661ZM302.534 13.2462C298.158 16.1654 296.355 19.9529 296.355 26.2295C296.355 30.6964 296.733 32.1909 298.561 34.9238C303.868 42.8598 314.549 42.8598 319.854 34.9238C322.75 30.593 322.994 22.4059 320.359 17.9652C316.542 11.5368 308.351 9.36768 302.534 13.2462ZM358.777 12.6767C356.237 14.0407 354.818 16.2114 354.818 18.7292C354.818 21.2397 356.015 20.7875 357.363 17.7674C358.015 16.3057 359.481 14.6283 360.622 14.0398C363.316 12.6504 369.351 13.2528 371.436 15.1207C373.28 16.7727 373.639 21.3915 372.025 22.7153C371.454 23.1823 368.073 23.966 364.508 24.456C354.935 25.7723 353.159 27.165 353.159 33.3587C353.159 35.669 353.71 37.0641 355.151 38.4043C359.115 42.09 367.981 41.3661 371.39 37.0789C372.862 35.225 373.061 35.1642 373.061 36.5635C373.061 38.6891 374.63 40.1212 376.959 40.1212C379.269 40.1212 379.488 38.8319 377.274 38.259C375.818 37.8823 375.657 36.8778 375.408 26.6004C375.136 15.4391 375.116 15.3398 372.808 13.3759C370.924 11.7739 369.582 11.4038 365.759 11.4301C363.162 11.4481 360.02 12.0095 358.777 12.6767ZM313.814 14.346C319.222 16.8851 321.705 26.5257 318.536 32.6767C316.484 36.6579 313.318 38.7039 309.208 38.7039C300.521 38.7039 295.661 28.2401 300.118 19.1297C302.813 13.6196 308.235 11.7255 313.814 14.346ZM342.354 14.0883C346.099 15.9635 348.184 20.1121 348.184 25.6878C348.184 31.8446 346.245 35.8643 342.307 37.8741C337.274 40.4437 331.67 38.1565 329.059 32.4658C323.894 21.2093 332.585 9.19616 342.354 14.0883ZM371.846 33.5015C370 37.0338 366.938 38.7531 362.498 38.7531C359.394 38.7531 358.347 38.346 356.76 36.5192C354.325 33.7182 354.305 31.7617 356.683 29.0871C358.211 27.3686 359.748 26.8277 365.183 26.0981C368.832 25.6082 372.003 25.0198 372.232 24.7908C373.337 23.6812 372.998 31.2955 371.846 33.5015ZM388.154 33.7198C385.772 36.0768 387.593 40.1212 391.036 40.1212C393.693 40.1212 395.873 36.6899 394.652 34.4314C393.622 32.5282 389.783 32.1072 388.154 33.7198ZM393.649 36.3099C393.829 37.8782 393.612 38.4667 392.994 38.0875C392.483 37.7757 392.294 36.8138 392.571 35.9488C392.957 34.7457 392.672 34.3764 391.36 34.3764C390.04 34.3764 389.65 34.8951 389.658 36.6333C389.668 38.1819 389.892 38.5463 390.373 37.7954C390.932 36.9213 391.181 36.9747 391.6 38.0604C392.3 39.8659 389.744 39.417 388.539 37.5229C387.386 35.7092 389.283 33.3875 391.647 33.7215C392.859 33.893 393.46 34.6685 393.649 36.3099Z" fill="white"/>
</svg>
