<svg width="517" height="82" viewBox="0 0 517 82" fill="none" xmlns="http://www.w3.org/2000/svg">
<path fill-rule="evenodd" clip-rule="evenodd" d="M263 37.5V75H268H273V53.969C273 34.879 273.162 32.871 274.75 32.219C275.712 31.823 280.646 31.5 285.714 31.5C296.37 31.5 297.747 32.288 299.073 39.152C299.535 41.543 299.932 50.587 299.956 59.25L300 75H305H310V54.52C310 23.471 309.248 22.439 286.75 22.596L273 22.693V11.346V0H268H263V37.5ZM75.5 5.344C65.143 8.779 57.383 14.612 51.991 23.014L48.841 27.923L45.17 25.566C39.454 21.895 34.424 20.701 26.933 21.237C18.792 21.819 13.126 24.777 7.15301 31.564C-5.29099 45.701 -0.780988 69.439 15.973 77.986C23 81.571 32.295 82.23 69.415 81.775C91.813 81.501 105.454 80.946 107.139 80.24C118.156 75.623 126.751 57.542 125.794 41C125.44 34.896 124.725 32.264 122.06 27.264C117.912 19.482 108.801 10.715 101.281 7.269C94.394 4.112 82.002 3.187 75.5 5.344ZM409.29 8.965C407.525 10.041 405.203 12.641 404.131 14.743C401.985 18.95 386 70.573 386 73.298C386 75.694 393.104 75.658 395.251 73.25C396.109 72.287 398.031 67.45 399.522 62.5C401.013 57.55 402.686 52.938 403.239 52.25C404.413 50.792 430.614 50.469 432.849 51.886C433.591 52.356 435.513 57.186 437.12 62.62C438.728 68.054 440.794 73.063 441.712 73.75C443.521 75.104 450.599 75.472 451.331 74.25C452.016 73.105 436.23 19.126 433.711 14C432.495 11.525 430.375 8.944 429 8.265C424.913 6.245 413.06 6.666 409.29 8.965ZM464.75 7.58C464.337 7.994 464 23.333 464 41.667V75H468.97H473.94L474.22 62.25L474.5 49.5L484.352 49.213C490.604 49.03 494.701 49.337 495.563 50.052C496.31 50.672 498.762 55.977 501.011 61.84C503.261 67.703 505.839 73.063 506.742 73.75C508.517 75.103 515.611 75.474 516.311 74.25C516.547 73.838 514.565 67.875 511.907 61C509.249 54.125 507.058 47.776 507.037 46.892C507.017 46.008 508.575 42.263 510.5 38.569C513.481 32.85 514 30.865 513.998 25.177C513.997 17.067 511.9 12.382 507 9.534C503.882 7.722 501.426 7.463 484.5 7.163C474.05 6.978 465.163 7.166 464.75 7.58ZM423.317 18.25C425.709 20.667 431.81 40.523 430.549 41.785C429.563 42.772 413.701 43.354 409.462 42.559C407.558 42.202 406 41.349 406 40.665C406 37.503 412.315 19.685 414.051 17.949C416.645 15.355 420.579 15.483 423.317 18.25ZM500.545 18.455C502.534 20.443 503 21.914 502.998 26.205C502.998 29.244 502.252 32.989 501.248 34.994C499.24 39.009 496.379 39.846 484.332 39.942C473.587 40.029 474 40.504 474 28.06C474 22.16 474.3 17.033 474.667 16.667C475.033 16.3 480.454 16 486.712 16C497.46 16 498.227 16.136 500.545 18.455ZM159.655 23.459C152.051 26.17 148.425 31.753 146.84 43.189C145.648 51.792 147.164 62.912 150.2 67.823C154.096 74.127 165.812 77.11 180.5 75.537C188.123 74.721 192 72.023 192 67.534C192 65.073 191.839 65.005 187.75 65.732C185.412 66.148 179.45 66.489 174.5 66.49C163.129 66.493 159.578 64.86 157.97 58.889C156.088 51.898 155.823 52 175.901 52C196.569 52 195.746 52.435 194.545 42.142C193.188 30.5 189.813 24.876 183.057 22.999C177.95 21.581 164.163 21.851 159.655 23.459ZM220.664 23.181C211.509 25.707 206.735 35.121 206.819 50.482C206.889 63.328 209.746 69.576 217.5 73.839C221.954 76.288 242.496 76.215 246.278 73.737C248.924 72.004 250.721 67.976 249.634 66.217C249.307 65.688 246.499 65.687 242.79 66.215C233.022 67.605 224.464 66.386 220.761 63.078C217.924 60.543 217.654 59.726 217.234 52.416C216.693 42.992 218.04 37.251 221.569 33.935C224.016 31.635 224.864 31.493 236.83 31.382C249.468 31.264 249.501 31.257 249.797 28.83C249.981 27.325 249.274 25.652 247.945 24.448C246.132 22.804 244.132 22.471 235.148 22.311C229.292 22.208 222.774 22.599 220.664 23.181ZM339.143 23.449C330.668 26.178 326.302 33.253 325.338 45.817C324.307 59.247 327.668 69.15 334.638 73.221C341.511 77.235 359.607 77.035 367.03 72.863C374.884 68.449 378.887 53.343 376.054 38.809C373.532 25.871 369.149 22.66 353.5 22.286C347.033 22.131 341.961 22.542 339.143 23.449ZM181.18 32.736C182.66 34.216 183.346 36.201 183.409 39.187L183.5 43.5H170.5H157.5L157.759 41C158.607 32.81 162.842 29.787 172.771 30.284C177.567 30.524 179.545 31.1 181.18 32.736ZM361.167 32.624C364.773 34.438 366.488 39.828 366.402 49.076C366.321 57.751 364.023 63.727 360 65.727C358.625 66.411 354.298 66.977 350.385 66.985C338.798 67.009 335.889 63.498 335.85 49.442C335.824 40.297 337.574 34.848 341.165 32.885C346.313 30.072 355.847 29.948 361.167 32.624Z" fill="white"/>
</svg>
