<svg width="362" height="688" viewBox="0 0 362 688" fill="none" xmlns="http://www.w3.org/2000/svg">
<path d="M361 0H5V625L187 688L354 625L361 0Z" fill="#818188" stroke="black"/>
<path d="M83.0536 164.384C81.7736 164.384 80.4616 164.24 79.1176 163.952C77.7736 163.664 77.1016 163.072 77.1016 162.176C77.1016 161.44 77.2616 160.528 77.5816 159.44C77.9336 158.352 78.4296 157.776 79.0696 157.712C79.1976 157.712 79.5016 157.776 79.9816 157.904C80.4936 158.032 81.0856 158.096 81.7576 158.096C83.1976 158.096 84.2216 157.712 84.8296 156.944C85.4696 156.144 85.7896 154.864 85.7896 153.104V131.84C85.7896 130.784 86.7496 130.256 88.6696 130.256H90.3496C92.2696 130.256 93.2296 130.784 93.2296 131.84V154.304C93.2296 157.472 92.3976 159.952 90.7336 161.744C89.0696 163.504 86.5096 164.384 83.0536 164.384ZM113.982 164.384C109.022 164.384 105.214 162.912 102.558 159.968C99.9021 156.992 98.5741 152.736 98.5741 147.2C98.5741 141.664 99.9021 137.424 102.558 134.48C105.214 131.504 109.022 130.016 113.982 130.016C118.942 130.016 122.734 131.504 125.358 134.48C128.014 137.424 129.342 141.664 129.342 147.2C129.342 152.736 128.014 156.992 125.358 159.968C122.734 162.912 118.942 164.384 113.982 164.384ZM113.982 158.096C116.542 158.096 118.478 157.168 119.79 155.312C121.102 153.456 121.758 150.752 121.758 147.2C121.758 143.648 121.102 140.96 119.79 139.136C118.478 137.28 116.542 136.352 113.982 136.352C111.422 136.352 109.47 137.28 108.126 139.136C106.814 140.96 106.158 143.648 106.158 147.2C106.158 150.752 106.814 153.456 108.126 155.312C109.47 157.168 111.422 158.096 113.982 158.096ZM137.475 164.144C135.555 164.144 134.595 163.616 134.595 162.56V131.84C134.595 130.784 135.555 130.256 137.475 130.256H139.155C141.075 130.256 142.035 130.784 142.035 131.84V162.56C142.035 163.616 141.075 164.144 139.155 164.144H137.475ZM151.309 164.096C149.389 164.096 148.429 163.584 148.429 162.56V131.84C148.429 130.816 149.389 130.304 151.309 130.304H153.373C154.141 130.304 154.781 130.4 155.293 130.592C155.805 130.752 156.221 131.088 156.541 131.6L167.341 148.256C167.981 149.184 168.557 150.128 169.069 151.088L169.261 151.04C169.197 150.304 169.165 149.216 169.165 147.776V131.84C169.165 130.816 170.125 130.304 172.045 130.304H173.437C175.357 130.304 176.317 130.816 176.317 131.84V162.56C176.317 163.584 175.357 164.096 173.437 164.096H171.613C170.845 164.096 170.205 164.016 169.693 163.856C169.181 163.664 168.765 163.312 168.445 162.8L157.405 145.904C156.765 144.976 156.189 144.032 155.677 143.072L155.485 143.12C155.549 143.856 155.581 144.944 155.581 146.384V162.56C155.581 163.584 154.621 164.096 152.701 164.096H151.309ZM203.484 164.096C201.564 164.096 200.604 163.584 200.604 162.56V136.688H192.972C192.46 136.688 192.092 136.496 191.868 136.112C191.644 135.728 191.532 135.12 191.532 134.288V132.8C191.532 131.968 191.644 131.36 191.868 130.976C192.092 130.592 192.46 130.4 192.972 130.4H215.676C216.188 130.4 216.556 130.592 216.78 130.976C217.004 131.36 217.116 131.968 217.116 132.8V134.288C217.116 135.12 217.004 135.728 216.78 136.112C216.556 136.496 216.188 136.688 215.676 136.688H208.044V162.56C208.044 163.584 207.084 164.096 205.164 164.096H203.484ZM224.068 164.096C222.148 164.096 221.188 163.584 221.188 162.56V131.84C221.188 130.816 222.148 130.304 224.068 130.304H225.748C227.668 130.304 228.628 130.816 228.628 131.84V143.696H241.588V131.84C241.588 130.816 242.548 130.304 244.468 130.304H246.148C248.068 130.304 249.028 130.816 249.028 131.84V162.56C249.028 163.584 248.068 164.096 246.148 164.096H244.468C242.548 164.096 241.588 163.584 241.588 162.56V150.032H228.628V162.56C228.628 163.584 227.668 164.096 225.748 164.096H224.068ZM258.311 164C257.639 164 257.143 163.856 256.823 163.568C256.535 163.248 256.391 162.752 256.391 162.08V132.32C256.391 131.648 256.535 131.168 256.823 130.88C257.143 130.56 257.639 130.4 258.311 130.4H275.159C275.671 130.4 276.039 130.592 276.263 130.976C276.487 131.36 276.599 131.968 276.599 132.8V134.288C276.599 135.12 276.487 135.728 276.263 136.112C276.039 136.496 275.671 136.688 275.159 136.688H263.783V143.648H273.863C274.375 143.648 274.743 143.84 274.967 144.224C275.191 144.608 275.303 145.216 275.303 146.048V147.536C275.303 148.368 275.191 148.976 274.967 149.36C274.743 149.744 274.375 149.936 273.863 149.936H263.783V157.712H275.207C275.719 157.712 276.087 157.904 276.311 158.288C276.535 158.672 276.647 159.28 276.647 160.112V161.6C276.647 162.432 276.535 163.04 276.311 163.424C276.087 163.808 275.719 164 275.207 164H258.311ZM93.8024 219.384C88.8424 219.384 85.0344 217.912 82.3784 214.968C79.7224 211.992 78.3944 207.736 78.3944 202.2C78.3944 196.664 79.7224 192.424 82.3784 189.48C85.0344 186.504 88.8424 185.016 93.8024 185.016C98.7624 185.016 102.554 186.504 105.178 189.48C107.834 192.424 109.162 196.664 109.162 202.2C109.162 207.736 107.834 211.992 105.178 214.968C102.554 217.912 98.7624 219.384 93.8024 219.384ZM93.8024 213.096C96.3624 213.096 98.2984 212.168 99.6104 210.312C100.922 208.456 101.578 205.752 101.578 202.2C101.578 198.648 100.922 195.96 99.6104 194.136C98.2984 192.28 96.3624 191.352 93.8024 191.352C91.2424 191.352 89.2904 192.28 87.9464 194.136C86.6344 195.96 85.9784 198.648 85.9784 202.2C85.9784 205.752 86.6344 208.456 87.9464 210.312C89.2904 212.168 91.2424 213.096 93.8024 213.096ZM117.536 219.096C115.616 219.096 114.656 218.584 114.656 217.56V187.32C114.656 186.648 114.8 186.168 115.088 185.88C115.408 185.56 115.904 185.4 116.576 185.4H126.656C129.664 185.4 132.32 186.136 134.624 187.608C136.928 189.048 138.08 191.816 138.08 195.912C138.08 198.728 137.408 200.92 136.064 202.488C134.72 204.024 133.216 205.064 131.552 205.608C129.888 206.152 128.416 206.424 127.136 206.424H122.048V217.56C122.048 218.584 121.088 219.096 119.168 219.096H117.536ZM126.32 200.088C127.472 200.088 128.448 199.784 129.248 199.176C130.08 198.568 130.496 197.48 130.496 195.912C130.496 194.344 130.08 193.256 129.248 192.648C128.448 192.008 127.472 191.688 126.32 191.688H122.048V200.088H126.32ZM144.335 219C143.663 219 143.167 218.856 142.847 218.568C142.559 218.248 142.415 217.752 142.415 217.08V187.32C142.415 186.648 142.559 186.168 142.847 185.88C143.167 185.56 143.663 185.4 144.335 185.4H161.183C161.695 185.4 162.063 185.592 162.287 185.976C162.511 186.36 162.623 186.968 162.623 187.8V189.288C162.623 190.12 162.511 190.728 162.287 191.112C162.063 191.496 161.695 191.688 161.183 191.688H149.807V198.648H159.887C160.399 198.648 160.767 198.84 160.991 199.224C161.215 199.608 161.327 200.216 161.327 201.048V202.536C161.327 203.368 161.215 203.976 160.991 204.36C160.767 204.744 160.399 204.936 159.887 204.936H149.807V212.712H161.231C161.743 212.712 162.111 212.904 162.335 213.288C162.559 213.672 162.671 214.28 162.671 215.112V216.6C162.671 217.432 162.559 218.04 162.335 218.424C162.111 218.808 161.743 219 161.231 219H144.335ZM171.114 219.096C169.194 219.096 168.234 218.584 168.234 217.56V186.84C168.234 185.816 169.194 185.304 171.114 185.304H173.178C173.946 185.304 174.586 185.4 175.098 185.592C175.61 185.752 176.026 186.088 176.346 186.6L187.146 203.256C187.786 204.184 188.362 205.128 188.874 206.088L189.066 206.04C189.002 205.304 188.97 204.216 188.97 202.776V186.84C188.97 185.816 189.93 185.304 191.85 185.304H193.242C195.162 185.304 196.122 185.816 196.122 186.84V217.56C196.122 218.584 195.162 219.096 193.242 219.096H191.418C190.65 219.096 190.01 219.016 189.498 218.856C188.986 218.664 188.57 218.312 188.25 217.8L177.21 200.904C176.57 199.976 175.994 199.032 175.482 198.072L175.29 198.12C175.354 198.856 175.386 199.944 175.386 201.384V217.56C175.386 218.584 174.426 219.096 172.506 219.096H171.114ZM205.374 219.144C203.454 219.144 202.494 218.616 202.494 217.56V186.84C202.494 185.784 203.454 185.256 205.374 185.256H207.054C208.974 185.256 209.934 185.784 209.934 186.84V217.56C209.934 218.616 208.974 219.144 207.054 219.144H205.374ZM219.208 219.096C217.288 219.096 216.328 218.584 216.328 217.56V186.84C216.328 185.816 217.288 185.304 219.208 185.304H221.272C222.04 185.304 222.68 185.4 223.192 185.592C223.704 185.752 224.12 186.088 224.44 186.6L235.24 203.256C235.88 204.184 236.456 205.128 236.968 206.088L237.16 206.04C237.096 205.304 237.064 204.216 237.064 202.776V186.84C237.064 185.816 238.024 185.304 239.944 185.304H241.336C243.256 185.304 244.216 185.816 244.216 186.84V217.56C244.216 218.584 243.256 219.096 241.336 219.096H239.512C238.744 219.096 238.104 219.016 237.592 218.856C237.08 218.664 236.664 218.312 236.344 217.8L225.304 200.904C224.664 199.976 224.088 199.032 223.576 198.072L223.384 198.12C223.448 198.856 223.48 199.944 223.48 201.384V217.56C223.48 218.584 222.52 219.096 220.6 219.096H219.208ZM274.732 200.328C275.404 200.328 275.884 200.488 276.172 200.808C276.492 201.096 276.652 201.576 276.652 202.248V215.592C276.652 217.032 275.452 218.024 273.052 218.568C270.652 219.112 268.124 219.384 265.468 219.384C260.092 219.384 256.108 217.992 253.516 215.208C250.956 212.392 249.676 208.024 249.676 202.104C249.676 190.712 255.02 185.016 265.708 185.016C267.18 185.016 268.716 185.16 270.316 185.448C271.916 185.736 273.26 186.136 274.348 186.648C275.436 187.16 275.98 187.736 275.98 188.376C275.98 188.824 275.804 189.416 275.452 190.152C275.1 190.856 274.668 191.496 274.156 192.072C273.676 192.616 273.244 192.888 272.86 192.888C272.764 192.888 272.364 192.744 271.66 192.456C270.956 192.168 270.092 191.912 269.068 191.688C268.076 191.464 266.908 191.352 265.564 191.352C262.748 191.352 260.652 192.248 259.276 194.04C257.932 195.832 257.26 198.536 257.26 202.152C257.26 209.448 259.996 213.096 265.468 213.096C266.748 213.096 267.996 212.984 269.212 212.76V206.664H264.988C264.476 206.664 264.108 206.472 263.884 206.088C263.66 205.704 263.548 205.096 263.548 204.264V202.728C263.548 201.896 263.66 201.288 263.884 200.904C264.108 200.52 264.476 200.328 264.988 200.328H274.732ZM71.8036 274.384C66.4276 274.384 62.4436 272.992 59.8516 270.208C57.2916 267.392 56.0116 263.024 56.0116 257.104C56.0116 245.712 61.3556 240.016 72.0436 240.016C73.6436 240.016 75.2756 240.192 76.9396 240.544C78.6036 240.864 79.8996 241.296 80.8276 241.84C81.6596 242.32 82.0756 242.832 82.0756 243.376C82.0756 243.824 81.8996 244.416 81.5476 245.152C81.1956 245.856 80.7636 246.496 80.2516 247.072C79.7716 247.616 79.3396 247.888 78.9556 247.888C78.8596 247.888 78.4756 247.744 77.8036 247.456C77.1316 247.168 76.3156 246.912 75.3556 246.688C74.3956 246.464 73.2436 246.352 71.8996 246.352C69.0836 246.352 66.9876 247.248 65.6116 249.04C64.2676 250.832 63.5956 253.536 63.5956 257.152C63.5956 264.448 66.3316 268.096 71.8036 268.096C73.2436 268.096 74.4916 267.952 75.5476 267.664C76.6036 267.376 77.6276 267.008 78.6196 266.56C79.1316 266.304 79.4836 266.176 79.6756 266.176C80.1556 266.176 80.6036 266.448 81.0196 266.992C81.4676 267.536 81.8196 268.16 82.0756 268.864C82.3636 269.536 82.5076 270.032 82.5076 270.352C82.5076 271.184 81.9476 271.92 80.8276 272.56C79.7716 273.168 78.3796 273.632 76.6516 273.952C74.9236 274.24 73.3076 274.384 71.8036 274.384ZM89.1863 274C88.5143 274 88.0183 273.856 87.6983 273.568C87.4103 273.248 87.2663 272.752 87.2663 272.08V242.32C87.2663 241.648 87.4103 241.168 87.6983 240.88C88.0183 240.56 88.5143 240.4 89.1863 240.4H106.034C106.546 240.4 106.914 240.592 107.138 240.976C107.362 241.36 107.474 241.968 107.474 242.8V244.288C107.474 245.12 107.362 245.728 107.138 246.112C106.914 246.496 106.546 246.688 106.034 246.688H94.6583V253.648H104.738C105.25 253.648 105.618 253.84 105.842 254.224C106.066 254.608 106.178 255.216 106.178 256.048V257.536C106.178 258.368 106.066 258.976 105.842 259.36C105.618 259.744 105.25 259.936 104.738 259.936H94.6583V267.712H106.082C106.594 267.712 106.962 267.904 107.186 268.288C107.41 268.672 107.522 269.28 107.522 270.112V271.6C107.522 272.432 107.41 273.04 107.186 273.424C106.962 273.808 106.594 274 106.082 274H89.1863ZM115.965 274.096C114.045 274.096 113.085 273.584 113.085 272.56V242.32C113.085 241.648 113.229 241.168 113.517 240.88C113.837 240.56 114.333 240.4 115.005 240.4H124.365C132.333 240.4 136.317 243.408 136.317 249.424C136.317 251.216 135.805 252.784 134.781 254.128C133.789 255.44 132.429 256.416 130.701 257.056V257.248C131.309 257.472 131.933 258.016 132.573 258.88C133.213 259.712 133.741 260.64 134.157 261.664L138.381 272.224C138.541 272.64 138.621 272.944 138.621 273.136C138.621 273.424 138.381 273.664 137.901 273.856C137.421 274.016 136.701 274.096 135.741 274.096H133.773C132.205 274.096 131.277 273.76 130.989 273.088L127.197 263.728C126.653 262.672 126.061 261.936 125.421 261.52C124.813 261.072 123.789 260.848 122.349 260.848H120.477V272.56C120.477 273.584 119.517 274.096 117.597 274.096H115.965ZM125.037 254.464C126.029 254.464 126.893 254.064 127.629 253.264C128.365 252.464 128.733 251.488 128.733 250.336C128.733 249.216 128.365 248.336 127.629 247.696C126.925 247.024 125.949 246.688 124.701 246.688H120.477V254.464H125.037ZM144.686 274C144.014 274 143.518 273.856 143.198 273.568C142.91 273.248 142.766 272.752 142.766 272.08V242.32C142.766 241.648 142.91 241.168 143.198 240.88C143.518 240.56 144.014 240.4 144.686 240.4H161.534C162.046 240.4 162.414 240.592 162.638 240.976C162.862 241.36 162.974 241.968 162.974 242.8V244.288C162.974 245.12 162.862 245.728 162.638 246.112C162.414 246.496 162.046 246.688 161.534 246.688H150.158V253.648H160.238C160.75 253.648 161.118 253.84 161.342 254.224C161.566 254.608 161.678 255.216 161.678 256.048V257.536C161.678 258.368 161.566 258.976 161.342 259.36C161.118 259.744 160.75 259.936 160.238 259.936H150.158V267.712H161.582C162.094 267.712 162.462 267.904 162.686 268.288C162.91 268.672 163.022 269.28 163.022 270.112V271.6C163.022 272.432 162.91 273.04 162.686 273.424C162.462 273.808 162.094 274 161.582 274H144.686ZM184.809 265.984C183.977 265.984 183.337 265.68 182.889 265.072L176.985 254.512C176.569 253.808 176.217 253.184 175.929 252.64L175.737 252.688V255.04V272.56C175.737 273.584 174.777 274.096 172.857 274.096H171.465C169.545 274.096 168.585 273.584 168.585 272.56V241.84C168.585 240.816 169.545 240.304 171.465 240.304H174.009C175.545 240.304 176.553 240.736 177.033 241.6L185.001 255.808L185.481 256.624L185.913 255.808L194.025 241.6C194.505 240.736 195.513 240.304 197.049 240.304H199.545C201.465 240.304 202.425 240.816 202.425 241.84V272.56C202.425 273.584 201.465 274.096 199.545 274.096H198.153C196.233 274.096 195.273 273.584 195.273 272.56V255.04V252.688L195.081 252.64C194.793 253.184 194.441 253.808 194.025 254.512L188.121 265.072C187.673 265.68 187.033 265.984 186.201 265.984H184.809ZM223.295 274.384C218.335 274.384 214.527 272.912 211.871 269.968C209.215 266.992 207.887 262.736 207.887 257.2C207.887 251.664 209.215 247.424 211.871 244.48C214.527 241.504 218.335 240.016 223.295 240.016C228.255 240.016 232.047 241.504 234.671 244.48C237.327 247.424 238.655 251.664 238.655 257.2C238.655 262.736 237.327 266.992 234.671 269.968C232.047 272.912 228.255 274.384 223.295 274.384ZM223.295 268.096C225.855 268.096 227.791 267.168 229.103 265.312C230.415 263.456 231.071 260.752 231.071 257.2C231.071 253.648 230.415 250.96 229.103 249.136C227.791 247.28 225.855 246.352 223.295 246.352C220.735 246.352 218.783 247.28 217.439 249.136C216.127 250.96 215.471 253.648 215.471 257.2C215.471 260.752 216.127 263.456 217.439 265.312C218.783 267.168 220.735 268.096 223.295 268.096ZM247.028 274.096C245.108 274.096 244.148 273.584 244.148 272.56V241.84C244.148 240.816 245.108 240.304 247.028 240.304H249.092C249.86 240.304 250.5 240.4 251.012 240.592C251.524 240.752 251.94 241.088 252.26 241.6L263.06 258.256C263.7 259.184 264.276 260.128 264.788 261.088L264.98 261.04C264.916 260.304 264.884 259.216 264.884 257.776V241.84C264.884 240.816 265.844 240.304 267.764 240.304H269.156C271.076 240.304 272.036 240.816 272.036 241.84V272.56C272.036 273.584 271.076 274.096 269.156 274.096H267.332C266.564 274.096 265.924 274.016 265.412 273.856C264.9 273.664 264.484 273.312 264.164 272.8L253.124 255.904C252.484 254.976 251.908 254.032 251.396 253.072L251.204 253.12C251.268 253.856 251.3 254.944 251.3 256.384V272.56C251.3 273.584 250.34 274.096 248.42 274.096H247.028ZM287.96 274.096C286.04 274.096 285.08 273.584 285.08 272.56V257.872L275.528 242.464C275.208 241.92 275.048 241.52 275.048 241.264C275.048 240.624 276.072 240.304 278.12 240.304H280.184C281.752 240.304 282.712 240.608 283.064 241.216L288.92 251.488L294.824 241.216C295.176 240.608 296.136 240.304 297.704 240.304H299.432C301.448 240.304 302.456 240.624 302.456 241.264C302.456 241.584 302.312 241.984 302.024 242.464L292.472 258.016V272.56C292.472 273.584 291.512 274.096 289.592 274.096H287.96ZM126.123 329.096C124.203 329.096 123.243 328.584 123.243 327.56V296.84C123.243 295.816 124.203 295.304 126.123 295.304H127.803C129.723 295.304 130.683 295.816 130.683 296.84V308.696H143.643V296.84C143.643 295.816 144.603 295.304 146.523 295.304H148.203C150.123 295.304 151.083 295.816 151.083 296.84V327.56C151.083 328.584 150.123 329.096 148.203 329.096H146.523C144.603 329.096 143.643 328.584 143.643 327.56V315.032H130.683V327.56C130.683 328.584 129.723 329.096 127.803 329.096H126.123ZM160.366 329C159.694 329 159.198 328.856 158.878 328.568C158.59 328.248 158.446 327.752 158.446 327.08V297.32C158.446 296.648 158.59 296.168 158.878 295.88C159.198 295.56 159.694 295.4 160.366 295.4H177.214C177.726 295.4 178.094 295.592 178.318 295.976C178.542 296.36 178.654 296.968 178.654 297.8V299.288C178.654 300.12 178.542 300.728 178.318 301.112C178.094 301.496 177.726 301.688 177.214 301.688H165.838V308.648H175.918C176.43 308.648 176.798 308.84 177.022 309.224C177.246 309.608 177.358 310.216 177.358 311.048V312.536C177.358 313.368 177.246 313.976 177.022 314.36C176.798 314.744 176.43 314.936 175.918 314.936H165.838V322.712H177.262C177.774 322.712 178.142 322.904 178.366 323.288C178.59 323.672 178.702 324.28 178.702 325.112V326.6C178.702 327.432 178.59 328.04 178.366 328.424C178.142 328.808 177.774 329 177.262 329H160.366ZM187.145 329.096C185.225 329.096 184.265 328.584 184.265 327.56V297.32C184.265 296.648 184.409 296.168 184.697 295.88C185.017 295.56 185.513 295.4 186.185 295.4H195.545C203.513 295.4 207.497 298.408 207.497 304.424C207.497 306.216 206.985 307.784 205.961 309.128C204.969 310.44 203.609 311.416 201.881 312.056V312.248C202.489 312.472 203.113 313.016 203.753 313.88C204.393 314.712 204.921 315.64 205.337 316.664L209.561 327.224C209.721 327.64 209.801 327.944 209.801 328.136C209.801 328.424 209.561 328.664 209.081 328.856C208.601 329.016 207.881 329.096 206.921 329.096H204.953C203.385 329.096 202.457 328.76 202.169 328.088L198.377 318.728C197.833 317.672 197.241 316.936 196.601 316.52C195.993 316.072 194.969 315.848 193.529 315.848H191.657V327.56C191.657 328.584 190.697 329.096 188.777 329.096H187.145ZM196.217 309.464C197.209 309.464 198.073 309.064 198.809 308.264C199.545 307.464 199.913 306.488 199.913 305.336C199.913 304.216 199.545 303.336 198.809 302.696C198.105 302.024 197.129 301.688 195.881 301.688H191.657V309.464H196.217ZM215.866 329C215.194 329 214.698 328.856 214.378 328.568C214.09 328.248 213.946 327.752 213.946 327.08V297.32C213.946 296.648 214.09 296.168 214.378 295.88C214.698 295.56 215.194 295.4 215.866 295.4H232.714C233.226 295.4 233.594 295.592 233.818 295.976C234.042 296.36 234.154 296.968 234.154 297.8V299.288C234.154 300.12 234.042 300.728 233.818 301.112C233.594 301.496 233.226 301.688 232.714 301.688H221.338V308.648H231.418C231.93 308.648 232.298 308.84 232.522 309.224C232.746 309.608 232.858 310.216 232.858 311.048V312.536C232.858 313.368 232.746 313.976 232.522 314.36C232.298 314.744 231.93 314.936 231.418 314.936H221.338V322.712H232.762C233.274 322.712 233.642 322.904 233.866 323.288C234.09 323.672 234.202 324.28 234.202 325.112V326.6C234.202 327.432 234.09 328.04 233.866 328.424C233.642 328.808 233.274 329 232.762 329H215.866Z" fill="white"/>
<path d="M80 513.88V432.645H197.733C214.82 436.394 220.481 449.135 221.175 455.037V537.834H103.442C85.1052 532.835 80.1736 519.782 80 513.88Z" fill="white"/>
<path d="M227.948 505.028V463.889L279 429V542L227.948 505.028Z" fill="white"/>
<path d="M80 513.88V432.645H197.733C214.82 436.394 220.481 449.135 221.175 455.037V537.834H103.442C85.1052 532.835 80.1736 519.782 80 513.88Z" stroke="white"/>
<path d="M227.948 505.028V463.889L279 429V542L227.948 505.028Z" stroke="white"/>
</svg>
