<svg width="390" height="82" viewBox="0 0 390 82" fill="none" xmlns="http://www.w3.org/2000/svg">
<path fill-rule="evenodd" clip-rule="evenodd" d="M18.3523 1.16912C13.7084 2.82577 9.19196 5.80826 6.49211 8.99959C3.37041 12.6911 0.0193301 19.9512 0.00878373 23.046C0.000874029 25.2791 0.258387 25.4888 2.70336 25.2396C5.10967 24.9948 5.57986 24.4526 6.98251 20.2995C10.817 8.94606 23.0287 2.80909 34.329 6.55585C40.6181 8.64158 46.8914 14.8645 48.5884 20.7005C49.7011 24.5254 50.1141 24.9931 52.5978 25.2396C56.0209 25.5801 56.1853 24.1419 53.5346 17.067C51.0879 10.5378 44.7707 4.23058 38.2311 1.78773C32.5818 -0.322565 23.3389 -0.610374 18.3523 1.16912ZM291.622 1.29372C283.468 3.89715 275.625 13.3027 273.899 22.552C273.386 25.3081 273.467 25.4037 276.318 25.4037C279.061 25.4037 279.336 25.1387 280.22 21.6306C283.322 9.32688 297.872 2.20891 310.322 6.90333C313.029 7.92382 316.392 9.92618 317.793 11.3529C320.826 14.439 321.746 14.5715 323.872 12.2269C325.435 10.5027 325.414 10.3912 323.066 7.944C321.74 6.562 318.608 4.3157 316.105 2.95124C312.222 0.834805 310.393 0.434686 303.645 0.22585C298.416 0.06352 294.341 0.425913 291.622 1.29372ZM351.623 1.50606C343.831 4.56665 336.138 13.9704 334.403 22.552C333.842 25.3256 333.909 25.4037 336.832 25.4037C339.613 25.4037 339.922 25.1229 340.929 21.6745C343.339 13.4308 350.822 6.84103 359.197 5.58714C369.717 4.01209 380.633 11.2608 383.424 21.6745C384.348 25.1177 384.649 25.4037 387.358 25.4037C390.268 25.4037 390.286 25.3783 389.692 22.1132C388.242 14.1459 381.958 6.03815 374.405 2.3844C369.037 -0.211126 357.16 -0.66916 351.623 1.50606ZM66.7931 13.064V25.4037H69.8937H72.9943L72.7499 13.3386L72.5056 1.27354L69.6493 0.99889L66.7931 0.723373V13.064ZM96.6742 13.1193V25.5152L99.5304 25.2396L102.387 24.965V13.1193V1.27354L99.5304 0.99889L96.6742 0.723373V13.1193ZM130.496 12.8086C127.362 19.3949 124.798 24.9229 124.798 25.0931C124.798 25.2642 126.178 25.4037 127.865 25.4037C130.789 25.4037 131.053 25.1361 133.522 19.7002C134.947 16.5633 136.473 13.9967 136.914 13.9967C137.356 13.9967 138.809 16.5633 140.144 19.7002C142.452 25.1203 142.72 25.4037 145.55 25.4037C147.187 25.4037 148.527 25.1361 148.527 24.8088C148.527 23.5172 137.499 0.844457 136.868 0.84007C136.498 0.837438 133.631 6.2233 130.496 12.8086ZM171.377 13.1193V25.4037H174.013C176.636 25.4037 176.65 25.3765 176.65 20.3855V15.3682L181.79 20.4469C186.423 25.0247 187.249 25.4976 190.16 25.2449L193.389 24.965L182.781 12.8999C176.947 6.26454 171.995 0.834805 171.775 0.834805C171.556 0.834805 171.377 6.36281 171.377 13.1193ZM207.41 13.1193V25.4037H210.047H212.683V13.1193V0.834805H210.047H207.41V13.1193ZM220.93 2.1001C220.663 2.79505 220.581 4.07878 220.748 4.95185C220.997 6.26278 222.078 6.58306 226.973 6.79803L232.897 7.05688V16.286V25.5152L235.753 25.2396C237.325 25.0887 238.659 24.4719 238.718 23.8682C238.78 23.2654 238.878 19.2361 238.94 14.9163L239.049 7.06039L244.542 6.79979C250.035 6.53831 250.035 6.53831 250.309 3.68656L250.586 0.834805H236.001C224.11 0.834805 221.328 1.06821 220.93 2.1001ZM257.505 13.064V25.4037H260.605H263.706L263.462 13.3386L263.217 1.27354L260.361 0.99889L257.505 0.723373V13.064ZM336.38 30.4798C334.25 30.7492 334.027 31.066 334.508 33.1403C336.347 41.0454 341.794 48.1932 349.029 52.1944C353.326 54.5706 354.473 54.7987 362.089 54.7943C369.436 54.7908 370.965 54.51 374.832 52.4576C382.285 48.5003 388.214 40.9102 389.623 33.5202C390.147 30.7738 390.063 30.6685 387.296 30.6685C384.661 30.6685 384.341 30.9756 383.422 34.3977C380.284 46.0644 364.764 53.3518 353.74 48.3344C347.257 45.3835 340.996 38.3138 340.996 33.9423C340.996 31.7732 338.853 30.1666 336.38 30.4798ZM0 32.6665C0 36.0017 5.04463 45.2036 8.56533 48.2897C12.7838 51.9873 18.3698 54.3872 24.1431 54.9821C30.1861 55.6051 36.912 54.6118 36.912 53.0973C36.912 50.7747 34.1857 49.727 27.8861 49.6313C17.2572 49.469 9.31587 44.0068 6.69513 35.0558C5.67389 31.5653 5.21865 31.0756 2.77015 30.8326C0.354172 30.5922 0 30.8273 0 32.6665ZM49.1966 32.2041C49.1861 33.0491 48.381 35.4919 47.4081 37.6329L45.639 41.5271L47.4661 43.3364L49.2933 45.1466L50.9868 42.953C52.7006 40.733 55.3679 33.9599 55.3679 31.8285C55.3679 31.0879 54.2562 30.6685 52.2919 30.6685C49.9559 30.6685 49.2115 31.0379 49.1966 32.2041ZM66.7931 34.6671C66.7931 44.0243 71.4281 52.2672 77.886 54.3951C82.558 55.935 90.4369 55.0979 94.4216 52.6393C98.6621 50.0227 101.664 43.69 102.238 36.1526L102.655 30.6685H99.7827H96.9106L96.4817 36.6449C96.2215 40.2846 95.4367 43.561 94.4761 45.0255C90.1618 51.5995 79.9522 51.61 74.7801 45.0457C73.3238 43.1969 72.945 41.4727 72.945 36.6923V30.6685H69.8691C66.8036 30.6685 66.7931 30.6825 66.7931 34.6671ZM116.825 41.6254C113.96 47.6518 111.615 52.9823 111.615 53.4711C111.615 53.9598 112.798 54.36 114.243 54.36C116.688 54.36 117.172 53.7633 121.171 45.8047C123.536 41.0989 126.089 35.7692 126.847 33.959L128.223 30.6685H125.13H122.035L116.825 41.6254ZM145.89 31.4135C145.89 31.8241 148.266 37.1547 151.169 43.2592C156.237 53.9168 156.555 54.36 159.142 54.36C162.481 54.36 162.528 54.5863 156.436 41.2735C151.712 30.9475 151.539 30.7097 148.746 30.6896C147.175 30.6781 145.89 31.0037 145.89 31.4135ZM171.377 42.5142V54.36H174.013H176.65V42.5142V30.6685H174.013H171.377V42.5142ZM191.591 31.1678C191.591 31.7759 211.755 54.36 212.298 54.36C212.511 54.36 212.683 49.0294 212.683 42.5142V30.6685H210.047C207.428 30.6685 207.41 30.7018 207.37 35.7139L207.329 40.7593L202.738 35.7139C198.715 31.2932 197.739 30.6685 194.869 30.6685C193.065 30.6685 191.591 30.8931 191.591 31.1678ZM233.092 42.2949L233.336 53.9212L235.702 54.1941L238.068 54.467L238.339 43.4294C238.486 37.3583 238.478 32.004 238.316 31.5302C238.154 31.0563 236.859 30.6685 235.435 30.6685H232.846L233.092 42.2949ZM257.7 42.2949L257.944 53.9212H260.581H263.217L263.462 42.2949L263.708 30.6685H260.581H257.454L257.7 42.2949ZM274.319 34.2564C276.086 42.1053 282.426 49.8761 289.745 53.1605C294.955 55.4989 309.422 55.3769 314.674 52.9508C318.61 51.1335 325.177 46.0144 325.177 44.7649C325.177 44.4139 324.21 43.6111 323.031 42.9802C321.099 41.9474 320.594 42.0773 317.977 44.2841C313.256 48.2616 308.638 49.9332 302.326 49.9446C292.025 49.9639 283.962 44.4376 280.631 35.0734C279.197 31.0449 278.828 30.6685 276.288 30.6685H273.512L274.319 34.2564ZM30.4998 36.7081C47.1585 58.105 46.8861 57.8075 49.854 57.8391L52.6892 57.8698L46.0028 49.3146C33.676 33.5404 32.602 32.4234 29.7589 32.4234H27.1646L30.4998 36.7081ZM140.617 70.7632C135.025 72.7577 136.55 81.5613 142.488 81.5613C145.205 81.5613 146.769 80.0547 146.769 77.4372C146.769 75.8692 146.279 75.419 144.572 75.419C143.363 75.419 142.375 75.8139 142.375 76.2965C142.375 76.7791 143.166 77.174 144.132 77.174C146.417 77.174 146.385 78.6025 144.074 79.8379C142.66 80.5926 141.781 80.4978 140.119 79.4097C136.053 76.7501 138.558 71.2783 143.398 72.2453C144.771 72.519 145.89 72.3584 145.89 71.8873C145.89 71.4169 145.527 71.0317 145.083 71.0317C144.639 71.0317 143.749 70.8659 143.106 70.6623C142.462 70.4596 141.342 70.5053 140.617 70.7632ZM183.806 71.1572C180.753 72.2847 181.607 75.584 185.219 76.6133C187.959 77.3942 188.965 79.1535 187.27 80.1994C186.827 80.4732 185.444 80.3082 184.194 79.8344C182.765 79.2921 181.923 79.2834 181.923 79.8116C181.923 81.098 186.411 81.9316 187.991 80.9383C190.622 79.2851 190.149 77.2161 186.824 75.8297C182.813 74.1564 182.431 71.4406 186.317 72.2163C187.768 72.5059 188.954 72.4041 188.954 71.9899C188.954 70.8132 186.02 70.3394 183.806 71.1572ZM200.819 71.2099C198.447 72.5436 197.772 73.6825 197.757 76.3799C197.73 80.9295 203.789 83.3171 206.835 79.9564C210.831 75.548 205.888 68.3607 200.819 71.2099ZM278.504 71.3467C274.073 73.5395 275.978 81.5613 280.93 81.5613C285.458 81.5613 288.233 75.4155 284.969 72.6173C282.579 70.5667 280.789 70.2157 278.504 71.3467ZM69.6054 76.0771L69.8691 81.1225L73.6042 81.3919C75.8145 81.5516 77.3393 81.2831 77.3393 80.7338C77.3393 80.224 75.9261 79.8063 74.1992 79.8063C69.8849 79.8063 70.2874 76.9757 74.7124 76.193L77.7788 75.6498L74.483 75.5349C71.8474 75.4419 71.1873 75.0786 71.1873 73.7168C71.1873 72.3962 71.9256 71.9381 74.483 71.6705C77.4694 71.359 77.3833 71.3125 73.5602 71.1791L69.3417 71.0317L69.6054 76.0771ZM86.2861 76.5159C86.4408 81.8596 86.4539 81.8877 86.7958 77.6127L87.1474 73.2254L91.0134 77.6127L94.8804 82L94.7662 76.2965C94.6607 71.0072 94.6141 70.8799 94.1255 74.5416L93.5982 78.4902L90.5951 74.7609C88.9429 72.7094 87.2625 71.0317 86.86 71.0317C86.4575 71.0317 86.1991 73.5 86.2861 76.5159ZM103.881 76.0771L104.144 81.1225L107.88 81.3919C110.09 81.5516 111.615 81.2831 111.615 80.7338C111.615 80.224 110.202 79.8063 108.475 79.8063C105.962 79.8063 105.392 79.501 105.629 78.2778C105.798 77.4039 107.049 76.508 108.549 76.1877L111.175 75.627L108.319 75.5226C106.114 75.4427 105.463 75.0312 105.463 73.7168C105.463 72.3962 106.201 71.9381 108.758 71.6705C111.745 71.359 111.659 71.3125 107.836 71.1791L103.617 71.0317L103.881 76.0771ZM120.523 76.4658C120.589 79.5098 120.817 81.0874 121.031 79.9722C121.644 76.7633 123.921 76.5308 126.252 79.4396C128.243 81.9228 129.123 81.5665 127.465 78.9491C126.902 78.0584 127.1 77.1503 128.101 76.0455C130.287 73.6334 128.53 71.5319 124.049 71.2011L120.403 70.9308L120.523 76.4658ZM155.892 74.0441C157.159 75.7016 158.194 78.0935 158.194 79.3606C158.194 80.6733 158.572 81.4314 159.073 81.1225C159.556 80.8242 159.952 79.7616 159.952 78.7613C159.952 77.761 160.775 75.6121 161.782 73.987C162.787 72.362 163.249 71.0317 162.809 71.0317C162.368 71.0317 161.477 72.0189 160.831 73.2254C160.184 74.4319 159.372 75.419 159.025 75.419C158.679 75.419 157.748 74.4319 156.957 73.2254C156.165 72.0189 155.084 71.0317 154.554 71.0317C154.025 71.0317 154.627 72.3874 155.892 74.0441ZM217.077 76.2965V81.5613H220.769C224.669 81.5613 224.542 80.1889 220.593 79.6616C218.58 79.3922 218.404 79.0175 218.505 75.1997C218.564 72.9069 218.267 71.0317 217.846 71.0317C217.422 71.0317 217.077 73.4009 217.077 76.2965ZM232.018 74.7715C232.018 79.2535 233.623 81.5613 236.739 81.5613C239.777 81.5613 240.817 79.8406 240.689 75.0242L240.573 70.593L239.982 74.8224C238.929 82.3799 234.249 82.7572 233.236 75.3655C232.517 70.1165 232.018 69.8735 232.018 74.7715ZM250.254 71.6512C251.982 71.9829 252.232 72.5708 252.232 76.3062C252.232 78.6569 252.627 80.8242 253.111 81.1225C253.655 81.4586 253.989 79.8362 253.989 76.8484C253.989 72.5506 254.204 71.9899 255.967 71.6512C257.055 71.4415 255.77 71.2704 253.111 71.2704C250.451 71.2704 249.166 71.4415 250.254 71.6512ZM265.415 76.2965C265.415 79.2211 265.805 81.5613 266.293 81.5613C266.782 81.5613 267.172 79.2211 267.172 76.2965C267.172 73.3719 266.782 71.0317 266.293 71.0317C265.805 71.0317 265.415 73.3719 265.415 76.2965ZM295.454 76.5159C295.607 81.8087 295.624 81.8473 295.949 77.6206L296.287 73.2412L300.152 77.6206L304.017 82L304.051 76.3693C304.07 73.2728 303.912 70.9106 303.703 71.1204C303.367 71.4547 302.606 75.2155 302.399 77.553C302.36 78.0023 301.056 76.7194 299.502 74.7013C297.948 72.6831 296.366 71.0317 295.986 71.0317C295.607 71.0317 295.366 73.5 295.454 76.5159ZM313.191 72.3479C312.352 74.5275 313.479 76.0973 316.328 76.7221C319.201 77.3521 319.935 79.2693 317.643 80.1477C316.882 80.439 315.499 80.2705 314.567 79.7721C313.428 79.164 312.873 79.1597 312.873 79.759C312.873 81.0866 317.329 81.9526 318.942 80.9383C321.572 79.2851 321.099 77.2161 317.775 75.8297C313.764 74.1564 313.381 71.4406 317.267 72.2163C318.754 72.5129 319.904 72.3699 319.904 71.8873C319.904 70.457 313.755 70.8791 313.191 72.3479ZM126.995 74.1028C126.995 75.2804 126.311 75.9543 124.916 76.1517C122.382 76.5097 120.856 75.1619 121.6 73.2254C122.429 71.0677 126.995 71.81 126.995 74.1028ZM206.092 73.9791C207.635 76.3307 207.094 78.5656 204.67 79.8616C202.72 80.9032 200.005 79.7493 199.145 77.5135C198.384 75.5349 200.889 71.9092 203.016 71.9092C203.961 71.9092 205.343 72.8411 206.092 73.9791ZM283.695 72.9621C285.421 74.6864 284.971 78.749 282.934 79.8379C280.656 81.055 276.84 78.8639 276.84 76.3386C276.84 72.8472 281.352 70.6237 283.695 72.9621Z" fill="white"/>
</svg>
