<svg width="1540" height="145" viewBox="0 0 1540 145" fill="none" xmlns="http://www.w3.org/2000/svg">
<rect width="1540" height="145" rx="11" fill="#C9BDFA"/>
<path d="M349.189 48.6328C351.752 48.6328 354.033 49.2422 356.033 50.4609C358.033 51.6797 359.486 53.2891 360.392 55.2891C360.502 55.5078 360.556 55.7422 360.556 55.9922C360.556 56.4453 360.392 56.8359 360.064 57.1641C359.736 57.4922 359.345 57.6562 358.892 57.6562C358.595 57.6562 358.291 57.5625 357.978 57.375C357.681 57.1719 357.47 56.9297 357.345 56.6484C356.705 55.2109 355.65 54.0781 354.181 53.25C352.728 52.4062 351.064 51.9844 349.189 51.9844C348.189 51.9844 347.15 52.1094 346.072 52.3594C345.009 52.5938 344.017 52.9531 343.095 53.4375C342.189 53.9219 341.455 54.5391 340.892 55.2891C340.33 56.0234 340.048 56.8828 340.048 57.8672C340.048 59.0078 340.423 59.9375 341.173 60.6562C341.923 61.3594 342.877 61.9141 344.033 62.3203C345.205 62.7109 346.423 63.0156 347.689 63.2344C348.97 63.4375 350.134 63.6094 351.181 63.75C352.431 63.9219 353.673 64.1875 354.908 64.5469C356.158 64.8906 357.291 65.3828 358.306 66.0234C359.322 66.6484 360.134 67.4609 360.744 68.4609C361.369 69.4609 361.681 70.6875 361.681 72.1406C361.681 73.7344 361.298 75.125 360.533 76.3125C359.767 77.4844 358.759 78.4609 357.509 79.2422C356.275 80.0078 354.923 80.5859 353.455 80.9766C352.002 81.3516 350.58 81.5391 349.189 81.5391C346.298 81.5391 343.697 80.8828 341.384 79.5703C339.072 78.2578 337.423 76.4688 336.439 74.2031C336.345 73.9531 336.298 73.7266 336.298 73.5234C336.298 73.0703 336.462 72.6797 336.791 72.3516C337.119 72.0234 337.509 71.8594 337.962 71.8594C338.275 71.8594 338.58 71.9609 338.877 72.1641C339.189 72.3672 339.4 72.6094 339.509 72.8906C340.244 74.5625 341.47 75.875 343.189 76.8281C344.923 77.7812 346.923 78.2578 349.189 78.2578C350.189 78.2578 351.22 78.1406 352.283 77.9062C353.361 77.6562 354.361 77.2891 355.283 76.8047C356.205 76.3047 356.947 75.6719 357.509 74.9062C358.087 74.125 358.377 73.2031 358.377 72.1406C358.377 70.8906 357.97 69.9297 357.158 69.2578C356.361 68.5703 355.377 68.0703 354.205 67.7578C353.033 67.4297 351.877 67.1953 350.736 67.0547C349.205 66.8359 347.619 66.5625 345.978 66.2344C344.353 65.9062 342.837 65.4297 341.431 64.8047C340.025 64.1797 338.884 63.3125 338.009 62.2031C337.134 61.0781 336.697 59.625 336.697 57.8438C336.697 56.3438 337.072 55.0234 337.822 53.8828C338.572 52.7266 339.556 51.7656 340.775 51C342.009 50.2188 343.361 49.6328 344.83 49.2422C346.298 48.8359 347.752 48.6328 349.189 48.6328ZM373.911 81.4922C373.427 81.4922 373.012 81.3203 372.669 80.9766C372.325 80.6328 372.153 80.2188 372.153 79.7344V79.7109L372.13 50.2734V50.25C372.13 49.7969 372.294 49.3906 372.622 49.0312C372.966 48.6719 373.348 48.4922 373.77 48.4922C374.348 48.4922 374.802 48.6641 375.13 49.0078C375.473 49.3359 375.645 49.75 375.645 50.25V50.2734L375.669 79.7109V79.7344C375.669 80.2188 375.497 80.6328 375.153 80.9766C374.809 81.3203 374.395 81.4922 373.911 81.4922ZM385.648 65.3672C385.648 63.0859 386.039 60.9297 386.82 58.8984C387.617 56.8672 388.742 55.0703 390.195 53.5078C391.664 51.9453 393.406 50.7188 395.422 49.8281C397.437 48.9219 399.664 48.4688 402.102 48.4688C404.383 48.4688 406.437 48.7734 408.266 49.3828C410.094 49.9922 411.812 50.875 413.422 52.0312C413.937 52.375 414.195 52.8594 414.195 53.4844C414.195 53.9688 414.023 54.3828 413.68 54.7266C413.336 55.0703 412.922 55.2422 412.437 55.2422C412.047 55.2422 411.703 55.1328 411.406 54.9141C410.141 54.0234 408.711 53.3203 407.117 52.8047C405.523 52.2734 403.891 52.0078 402.219 52.0078C399.687 52.0078 397.43 52.6094 395.445 53.8125C393.477 55 391.93 56.6016 390.805 58.6172C389.68 60.6172 389.117 62.8359 389.117 65.2734C389.117 67.7734 389.656 69.9688 390.734 71.8594C391.828 73.7344 393.336 75.1953 395.258 76.2422C397.18 77.2891 399.406 77.8125 401.937 77.8125C403.406 77.8125 404.852 77.6484 406.273 77.3203C407.711 76.9766 409 76.6016 410.141 76.1953L410.07 67.4062H402.336C401.852 67.4062 401.437 67.2344 401.094 66.8906C400.75 66.5469 400.578 66.1328 400.578 65.6484C400.578 65.1641 400.75 64.75 401.094 64.4062C401.437 64.0625 401.852 63.8906 402.336 63.8906H411.828C412.312 63.8906 412.727 64.0625 413.07 64.4062C413.414 64.7344 413.586 65.1406 413.586 65.625L413.68 77.3906V77.4141C413.68 77.7422 413.57 78.0625 413.352 78.375C413.148 78.6875 412.891 78.9062 412.578 79.0312C411.109 79.625 409.484 80.1641 407.703 80.6484C405.922 81.1172 404.055 81.3516 402.102 81.3516C398.914 81.3516 396.078 80.6875 393.594 79.3594C391.125 78.0156 389.18 76.1484 387.758 73.7578C386.352 71.3516 385.648 68.5547 385.648 65.3672ZM424.62 50.2734C424.62 49.7734 424.792 49.3594 425.136 49.0312C425.495 48.6875 425.933 48.5156 426.448 48.5156C426.995 48.5156 427.441 48.75 427.784 49.2188L446.534 74.4375V50.3438C446.534 49.8594 446.706 49.4453 447.05 49.1016C447.394 48.7578 447.808 48.5859 448.292 48.5859C448.777 48.5859 449.191 48.7578 449.534 49.1016C449.878 49.4453 450.05 49.8594 450.05 50.3438V50.3672L450.027 79.7109C450.027 80.2109 449.847 80.6328 449.487 80.9766C449.144 81.3047 448.714 81.4688 448.198 81.4688C447.667 81.4688 447.222 81.2344 446.862 80.7656L428.136 55.5703V79.6875C428.136 80.1719 427.964 80.5859 427.62 80.9297C427.277 81.2734 426.862 81.4453 426.378 81.4453C425.894 81.4453 425.48 81.2734 425.136 80.9297C424.792 80.5859 424.62 80.1719 424.62 79.6875V50.2734ZM478.798 81.4922C478.314 81.4922 477.9 81.3203 477.556 80.9766C477.212 80.6328 477.041 80.2188 477.041 79.7344V79.7109L477.017 50.2734V50.25C477.017 49.7969 477.181 49.3906 477.509 49.0312C477.853 48.6719 478.236 48.4922 478.658 48.4922C479.236 48.4922 479.689 48.6641 480.017 49.0078C480.361 49.3359 480.533 49.75 480.533 50.25V50.2734L480.556 79.7109V79.7344C480.556 80.2188 480.384 80.6328 480.041 80.9766C479.697 81.3203 479.283 81.4922 478.798 81.4922ZM491.005 50.2734C491.005 49.7734 491.177 49.3594 491.52 49.0312C491.88 48.6875 492.317 48.5156 492.833 48.5156C493.38 48.5156 493.825 48.75 494.169 49.2188L512.919 74.4375V50.3438C512.919 49.8594 513.091 49.4453 513.434 49.1016C513.778 48.7578 514.192 48.5859 514.677 48.5859C515.161 48.5859 515.575 48.7578 515.919 49.1016C516.262 49.4453 516.434 49.8594 516.434 50.3438V50.3672L516.411 79.7109C516.411 80.2109 516.231 80.6328 515.872 80.9766C515.528 81.3047 515.098 81.4688 514.583 81.4688C514.052 81.4688 513.606 81.2344 513.247 80.7656L494.52 55.5703V79.6875C494.52 80.1719 494.348 80.5859 494.005 80.9297C493.661 81.2734 493.247 81.4453 492.762 81.4453C492.278 81.4453 491.864 81.2734 491.52 80.9297C491.177 80.5859 491.005 80.1719 491.005 79.6875V50.2734ZM543.402 50.0859C543.402 49.6797 543.589 49.3281 543.964 49.0312C544.339 48.7188 544.691 48.5625 545.019 48.5625C545.566 48.5781 546.027 48.75 546.402 49.0781C546.777 49.3906 546.964 49.8047 546.964 50.3203V62.7656H565.667V50.3203C565.667 49.8359 565.831 49.4219 566.159 49.0781C566.503 48.7344 566.917 48.5625 567.402 48.5625C567.902 48.5625 568.323 48.7344 568.667 49.0781C569.011 49.4219 569.183 49.8438 569.183 50.3438V79.5938C569.183 80.0781 569.003 80.4922 568.644 80.8359C568.3 81.1797 567.886 81.3516 567.402 81.3516C566.917 81.3516 566.503 81.1797 566.159 80.8359C565.831 80.4922 565.667 80.0781 565.667 79.5938V66.2812H546.964V79.6641C546.964 80.1484 546.792 80.5625 546.448 80.9062C546.12 81.25 545.714 81.4219 545.23 81.4219C544.745 81.4219 544.316 81.25 543.941 80.9062C543.581 80.5469 543.402 80.125 543.402 79.6406V50.0859ZM579.608 50.3672C579.608 49.8828 579.78 49.4688 580.123 49.125C580.467 48.7812 580.881 48.6094 581.366 48.6094L603.327 48.6328H603.35C603.834 48.6328 604.248 48.8047 604.592 49.1484C604.936 49.4922 605.108 49.9062 605.108 50.3906C605.108 50.875 604.936 51.2891 604.592 51.6328C604.248 51.9766 603.834 52.1484 603.35 52.1484H603.327L583.123 52.125L583.147 63.1406C583.194 63.1406 583.233 63.1406 583.264 63.1406C583.311 63.125 583.35 63.1172 583.381 63.1172L601.405 63.2344C601.905 63.2344 602.319 63.4062 602.647 63.75C602.991 64.0781 603.162 64.5312 603.162 65.1094C603.162 65.5469 602.983 65.9297 602.623 66.2578C602.264 66.5859 601.858 66.75 601.405 66.75H601.381L583.358 66.6328H583.17L583.194 77.5312L603.327 77.5078H603.35C603.834 77.5078 604.248 77.6797 604.592 78.0234C604.936 78.3672 605.108 78.7812 605.108 79.2656C605.108 79.75 604.936 80.1641 604.592 80.5078C604.248 80.8516 603.834 81.0234 603.35 81.0234H603.327L581.436 81.0469C580.952 81.0469 580.537 80.875 580.194 80.5312C579.85 80.1875 579.678 79.7734 579.678 79.2891L579.608 50.3672ZM639.064 79.8984C639.064 80.3516 638.892 80.7422 638.548 81.0703C638.22 81.3984 637.884 81.5625 637.541 81.5625C637.228 81.5625 636.939 81.4844 636.673 81.3281C636.408 81.1875 636.212 81.0781 636.087 81C634.712 80.0156 633.509 78.8672 632.478 77.5547C631.462 76.2422 630.603 74.8281 629.9 73.3125C629.244 71.875 628.548 70.7422 627.814 69.9141C627.095 69.0703 626.228 68.4688 625.212 68.1094C624.197 67.7344 622.908 67.5391 621.345 67.5234L618.627 67.5L618.65 79.5234V79.5703C618.65 80.0391 618.47 80.4531 618.111 80.8125C617.767 81.1562 617.361 81.3281 616.892 81.3281C616.408 81.3281 615.994 81.1562 615.65 80.8125C615.306 80.4531 615.134 80.0312 615.134 79.5469L615.064 50.25C615.064 49.75 615.236 49.3359 615.58 49.0078C615.923 48.6797 616.33 48.5078 616.798 48.4922L623.033 48.4688H623.572C626.212 48.4688 628.541 48.8125 630.556 49.5C632.572 50.1875 634.15 51.25 635.291 52.6875C636.431 54.1094 637.002 55.9375 637.002 58.1719C637.002 59.7344 636.673 61.1094 636.017 62.2969C635.361 63.4688 634.502 64.4531 633.439 65.25C632.377 66.0469 631.228 66.6406 629.994 67.0312C630.697 67.7344 631.392 68.75 632.08 70.0781C632.986 71.8125 633.884 73.375 634.775 74.7656C635.666 76.1562 636.845 77.3828 638.314 78.4453C638.814 78.8047 639.064 79.2891 639.064 79.8984ZM623.689 51.9844H618.58L618.627 64.3359C618.705 64.3203 618.806 64.3125 618.931 64.3125L623.736 64.2656C626.611 64.2344 628.962 63.75 630.791 62.8125C632.619 61.8594 633.533 60.2734 633.533 58.0547C633.533 56.5234 633.087 55.3203 632.197 54.4453C631.306 53.5547 630.111 52.9219 628.611 52.5469C627.127 52.1719 625.486 51.9844 623.689 51.9844ZM648.552 50.3672C648.552 49.8828 648.723 49.4688 649.067 49.125C649.411 48.7812 649.825 48.6094 650.309 48.6094L672.27 48.6328H672.294C672.778 48.6328 673.192 48.8047 673.536 49.1484C673.88 49.4922 674.052 49.9062 674.052 50.3906C674.052 50.875 673.88 51.2891 673.536 51.6328C673.192 51.9766 672.778 52.1484 672.294 52.1484H672.27L652.067 52.125L652.091 63.1406C652.137 63.1406 652.177 63.1406 652.208 63.1406C652.255 63.125 652.294 63.1172 652.325 63.1172L670.348 63.2344C670.848 63.2344 671.262 63.4062 671.591 63.75C671.934 64.0781 672.106 64.5312 672.106 65.1094C672.106 65.5469 671.927 65.9297 671.567 66.2578C671.208 66.5859 670.802 66.75 670.348 66.75H670.325L652.302 66.6328H652.114L652.137 77.5312L672.27 77.5078H672.294C672.778 77.5078 673.192 77.6797 673.536 78.0234C673.88 78.3672 674.052 78.7812 674.052 79.2656C674.052 79.75 673.88 80.1641 673.536 80.5078C673.192 80.8516 672.778 81.0234 672.294 81.0234H672.27L650.38 81.0469C649.895 81.0469 649.481 80.875 649.137 80.5312C648.794 80.1875 648.622 79.7734 648.622 79.2891L648.552 50.3672ZM698.886 50.3672C698.886 49.8672 699.058 49.4375 699.402 49.0781C699.761 48.7188 700.183 48.5391 700.667 48.5391H724.128C724.612 48.5391 725.027 48.7031 725.37 49.0312C725.714 49.3438 725.886 49.7422 725.886 50.2266C725.886 50.7109 725.714 51.1406 725.37 51.5156C725.027 51.875 724.605 52.0547 724.105 52.0547H714.12V79.6406C714.12 80.125 713.941 80.5391 713.581 80.8828C713.222 81.2266 712.8 81.3984 712.316 81.3984C711.831 81.3984 711.425 81.2266 711.097 80.8828C710.769 80.5391 710.605 80.125 710.605 79.6406V52.0547H700.644C700.159 52.0547 699.745 51.8984 699.402 51.5859C699.058 51.2578 698.886 50.8516 698.886 50.3672ZM749.811 48.5156C752.108 48.5156 754.209 48.9375 756.116 49.7812C758.038 50.625 759.694 51.8047 761.084 53.3203C762.475 54.8359 763.545 56.6016 764.295 58.6172C765.061 60.6172 765.444 62.7812 765.444 65.1094C765.444 68.2188 764.788 71.0156 763.475 73.5C762.163 75.9688 760.334 77.9219 757.991 79.3594C755.647 80.7969 752.92 81.5156 749.811 81.5156C746.655 81.5156 743.905 80.8047 741.561 79.3828C739.217 77.9453 737.405 75.9922 736.123 73.5234C734.842 71.0547 734.202 68.25 734.202 65.1094C734.202 62.8281 734.584 60.6875 735.35 58.6875C736.116 56.6719 737.194 54.9062 738.584 53.3906C739.991 51.8594 741.647 50.6641 743.553 49.8047C745.459 48.9453 747.545 48.5156 749.811 48.5156ZM749.811 52.1016C747.373 52.1016 745.248 52.6719 743.436 53.8125C741.623 54.9375 740.217 56.4844 739.217 58.4531C738.217 60.4062 737.717 62.625 737.717 65.1094C737.717 66.8281 738.022 68.4609 738.631 70.0078C739.256 71.5391 740.116 72.9062 741.209 74.1094C742.319 75.2969 743.6 76.2344 745.053 76.9219C746.522 77.6094 748.108 77.9531 749.811 77.9531C751.498 77.9531 753.077 77.5938 754.545 76.875C756.03 76.1562 757.327 75.1875 758.436 73.9688C759.561 72.75 760.436 71.375 761.061 69.8438C761.686 68.3125 761.998 66.7344 761.998 65.1094C761.998 62.5312 761.459 60.2656 760.381 58.3125C759.319 56.3594 757.866 54.8359 756.022 53.7422C754.194 52.6484 752.123 52.1016 749.811 52.1016ZM814.466 57.6328C814.466 59.0078 814.239 60.1641 813.786 61.1016C813.333 62.0234 812.677 62.8828 811.817 63.6797C812.989 64.3984 813.942 65.3984 814.677 66.6797C815.427 67.9609 815.802 69.4922 815.802 71.2734C815.802 74.4922 814.934 76.9297 813.2 78.5859C811.466 80.2266 808.973 81.0391 805.723 81.0234L793.7 81C793.231 81 792.825 80.875 792.481 80.625C792.153 80.3594 791.989 79.9922 791.989 79.5234L791.942 50.3203C791.942 49.8672 792.114 49.4688 792.458 49.125C792.802 48.7656 793.192 48.5781 793.63 48.5625L801.692 48.5391C804.13 48.5391 806.309 48.8672 808.231 49.5234C810.153 50.1641 811.669 51.1562 812.778 52.5C813.903 53.8438 814.466 55.5547 814.466 57.6328ZM801.856 52.1484L795.458 52.1719L795.481 62.4375L805.231 62.2969C806.997 62.2656 808.387 61.9062 809.403 61.2188C810.434 60.5156 810.95 59.3438 810.95 57.7031C810.95 56.3594 810.552 55.2812 809.755 54.4688C808.958 53.6562 807.872 53.0703 806.497 52.7109C805.137 52.3359 803.591 52.1484 801.856 52.1484ZM805.653 77.6719C807.856 77.6562 809.512 77.1875 810.622 76.2656C811.731 75.3281 812.286 73.7031 812.286 71.3906C812.286 69.3906 811.708 67.9609 810.552 67.1016C809.395 66.2422 807.77 65.8125 805.677 65.8125H805.302L795.481 65.9531L795.505 77.7188L805.653 77.6719ZM825.758 50.3672C825.758 49.8828 825.93 49.4688 826.273 49.125C826.617 48.7812 827.031 48.6094 827.516 48.6094L849.477 48.6328H849.5C849.984 48.6328 850.398 48.8047 850.742 49.1484C851.086 49.4922 851.258 49.9062 851.258 50.3906C851.258 50.875 851.086 51.2891 850.742 51.6328C850.398 51.9766 849.984 52.1484 849.5 52.1484H849.477L829.273 52.125L829.297 63.1406C829.344 63.1406 829.383 63.1406 829.414 63.1406C829.461 63.125 829.5 63.1172 829.531 63.1172L847.555 63.2344C848.055 63.2344 848.469 63.4062 848.797 63.75C849.141 64.0781 849.312 64.5312 849.312 65.1094C849.312 65.5469 849.133 65.9297 848.773 66.2578C848.414 66.5859 848.008 66.75 847.555 66.75H847.531L829.508 66.6328H829.32L829.344 77.5312L849.477 77.5078H849.5C849.984 77.5078 850.398 77.6797 850.742 78.0234C851.086 78.3672 851.258 78.7812 851.258 79.2656C851.258 79.75 851.086 80.1641 850.742 80.5078C850.398 80.8516 849.984 81.0234 849.5 81.0234H849.477L827.586 81.0469C827.102 81.0469 826.688 80.875 826.344 80.5312C826 80.1875 825.828 79.7734 825.828 79.2891L825.758 50.3672ZM860.745 65.3672C860.745 63.0859 861.136 60.9297 861.917 58.8984C862.714 56.8672 863.839 55.0703 865.292 53.5078C866.761 51.9453 868.503 50.7188 870.519 49.8281C872.534 48.9219 874.761 48.4688 877.198 48.4688C879.48 48.4688 881.534 48.7734 883.363 49.3828C885.191 49.9922 886.909 50.875 888.519 52.0312C889.034 52.375 889.292 52.8594 889.292 53.4844C889.292 53.9688 889.12 54.3828 888.777 54.7266C888.433 55.0703 888.019 55.2422 887.534 55.2422C887.144 55.2422 886.8 55.1328 886.503 54.9141C885.238 54.0234 883.808 53.3203 882.214 52.8047C880.62 52.2734 878.988 52.0078 877.316 52.0078C874.784 52.0078 872.527 52.6094 870.542 53.8125C868.573 55 867.027 56.6016 865.902 58.6172C864.777 60.6172 864.214 62.8359 864.214 65.2734C864.214 67.7734 864.753 69.9688 865.831 71.8594C866.925 73.7344 868.433 75.1953 870.355 76.2422C872.277 77.2891 874.503 77.8125 877.034 77.8125C878.503 77.8125 879.948 77.6484 881.37 77.3203C882.808 76.9766 884.097 76.6016 885.238 76.1953L885.167 67.4062H877.433C876.948 67.4062 876.534 67.2344 876.191 66.8906C875.847 66.5469 875.675 66.1328 875.675 65.6484C875.675 65.1641 875.847 64.75 876.191 64.4062C876.534 64.0625 876.948 63.8906 877.433 63.8906H886.925C887.409 63.8906 887.823 64.0625 888.167 64.4062C888.511 64.7344 888.683 65.1406 888.683 65.625L888.777 77.3906V77.4141C888.777 77.7422 888.667 78.0625 888.448 78.375C888.245 78.6875 887.988 78.9062 887.675 79.0312C886.206 79.625 884.581 80.1641 882.8 80.6484C881.019 81.1172 879.152 81.3516 877.198 81.3516C874.011 81.3516 871.175 80.6875 868.691 79.3594C866.222 78.0156 864.277 76.1484 862.855 73.7578C861.448 71.3516 860.745 68.5547 860.745 65.3672ZM901.498 81.4922C901.014 81.4922 900.6 81.3203 900.256 80.9766C899.912 80.6328 899.741 80.2188 899.741 79.7344V79.7109L899.717 50.2734V50.25C899.717 49.7969 899.881 49.3906 900.209 49.0312C900.553 48.6719 900.936 48.4922 901.358 48.4922C901.936 48.4922 902.389 48.6641 902.717 49.0078C903.061 49.3359 903.233 49.75 903.233 50.25V50.2734L903.256 79.7109V79.7344C903.256 80.2188 903.084 80.6328 902.741 80.9766C902.397 81.3203 901.983 81.4922 901.498 81.4922ZM913.705 50.2734C913.705 49.7734 913.877 49.3594 914.22 49.0312C914.58 48.6875 915.017 48.5156 915.533 48.5156C916.08 48.5156 916.525 48.75 916.869 49.2188L935.619 74.4375V50.3438C935.619 49.8594 935.791 49.4453 936.134 49.1016C936.478 48.7578 936.892 48.5859 937.377 48.5859C937.861 48.5859 938.275 48.7578 938.619 49.1016C938.963 49.4453 939.134 49.8594 939.134 50.3438V50.3672L939.111 79.7109C939.111 80.2109 938.931 80.6328 938.572 80.9766C938.228 81.3047 937.798 81.4688 937.283 81.4688C936.752 81.4688 936.306 81.2344 935.947 80.7656L917.22 55.5703V79.6875C917.22 80.1719 917.048 80.5859 916.705 80.9297C916.361 81.2734 915.947 81.4453 915.463 81.4453C914.978 81.4453 914.564 81.2734 914.22 80.9297C913.877 80.5859 913.705 80.1719 913.705 79.6875V50.2734ZM966.102 50.0859C966.102 49.6797 966.289 49.3281 966.664 49.0312C967.039 48.7188 967.391 48.5625 967.719 48.5625C968.266 48.5781 968.727 48.75 969.102 49.0781C969.477 49.3906 969.664 49.8047 969.664 50.3203V62.7656H988.367V50.3203C988.367 49.8359 988.531 49.4219 988.859 49.0781C989.203 48.7344 989.617 48.5625 990.102 48.5625C990.602 48.5625 991.023 48.7344 991.367 49.0781C991.711 49.4219 991.883 49.8438 991.883 50.3438V79.5938C991.883 80.0781 991.703 80.4922 991.344 80.8359C991 81.1797 990.586 81.3516 990.102 81.3516C989.617 81.3516 989.203 81.1797 988.859 80.8359C988.531 80.4922 988.367 80.0781 988.367 79.5938V66.2812H969.664V79.6641C969.664 80.1484 969.492 80.5625 969.148 80.9062C968.82 81.25 968.414 81.4219 967.93 81.4219C967.445 81.4219 967.016 81.25 966.641 80.9062C966.281 80.5469 966.102 80.125 966.102 79.6406V50.0859ZM1002.31 81.5391C1001.92 81.5391 1001.54 81.3672 1001.18 81.0234C1000.84 80.6797 1000.67 80.3203 1000.67 79.9453C1000.67 79.5703 1000.72 79.2734 1000.83 79.0547L1013.7 49.6406C1013.81 49.4062 1014.01 49.1719 1014.31 48.9375C1014.62 48.7031 1014.93 48.5859 1015.22 48.5859C1016.07 48.5859 1016.64 48.9375 1016.93 49.6406L1029.82 79.0078C1029.92 79.2109 1029.96 79.4375 1029.96 79.6875C1029.96 80.125 1029.82 80.5391 1029.52 80.9297C1029.24 81.3047 1028.87 81.4922 1028.42 81.4922C1027.5 81.4922 1026.89 81.1328 1026.59 80.4141L1021.88 69.6562H1008.85L1004.04 80.4609C1003.75 81.1797 1003.17 81.5391 1002.31 81.5391ZM1015.32 54.75L1010.37 66.1406H1020.33L1015.32 54.75ZM1066.62 69.5391C1067.01 69.5391 1067.37 69.7109 1067.72 70.0547C1068.08 70.3984 1068.26 70.7578 1068.26 71.1328C1068.26 71.5234 1068.2 71.8281 1068.09 72.0469C1067.34 73.7344 1066.27 75.2969 1064.88 76.7344C1063.51 78.1719 1061.87 79.3281 1059.96 80.2031C1058.05 81.0781 1055.92 81.5156 1053.56 81.5156C1051.23 81.5156 1049.12 81.0859 1047.23 80.2266C1045.36 79.3672 1043.75 78.1797 1042.4 76.6641C1041.08 75.1328 1040.05 73.3672 1039.33 71.3672C1038.63 69.3516 1038.28 67.1875 1038.28 64.875C1038.28 62.5938 1038.64 60.4688 1039.36 58.5C1040.08 56.5156 1041.11 54.7812 1042.45 53.2969C1043.8 51.7969 1045.4 50.625 1047.26 49.7812C1049.13 48.9375 1051.21 48.5156 1053.49 48.5156C1055.8 48.5156 1057.9 48.9219 1059.8 49.7344C1061.7 50.5469 1063.35 51.6328 1064.74 52.9922C1066.15 54.3516 1067.24 55.8594 1068.02 57.5156C1068.15 57.7656 1068.21 58.0312 1068.21 58.3125C1068.21 58.7656 1068.05 59.1719 1067.72 59.5312C1067.4 59.875 1067.08 60.0469 1066.73 60.0469C1065.8 60.0469 1065.17 59.7031 1064.86 59.0156C1063.94 57.0625 1062.49 55.4141 1060.52 54.0703C1058.55 52.7109 1056.21 52.0312 1053.49 52.0312C1051.08 52.0312 1049.01 52.6094 1047.26 53.7656C1045.51 54.9219 1044.15 56.4766 1043.2 58.4297C1042.26 60.3672 1041.8 62.5391 1041.8 64.9453C1041.8 67.3516 1042.26 69.5469 1043.2 71.5312C1044.14 73.5 1045.48 75.0703 1047.23 76.2422C1049 77.3984 1051.09 77.9766 1053.51 77.9766C1055.33 77.9766 1056.97 77.6406 1058.46 76.9688C1059.96 76.2812 1061.26 75.375 1062.35 74.25C1063.46 73.125 1064.3 71.9141 1064.88 70.6172C1065.19 69.8984 1065.77 69.5391 1066.62 69.5391ZM1078.24 78.7734C1078.24 78.1172 1078.24 77.3203 1078.26 76.3828C1078.28 75.4297 1078.28 74.2188 1078.28 72.75L1078.31 50.2031C1078.31 49.7031 1078.47 49.2812 1078.8 48.9375C1079.14 48.5938 1079.56 48.4219 1080.04 48.4219C1080.53 48.4219 1080.94 48.6016 1081.28 48.9609C1081.64 49.3047 1081.82 49.7188 1081.82 50.2031C1081.84 52.4844 1081.85 54.7656 1081.85 57.0469C1081.85 59.3125 1081.85 61.5859 1081.87 63.8672L1098.91 49.125C1099.3 48.7812 1099.69 48.6094 1100.08 48.6094C1100.55 48.6094 1100.95 48.8047 1101.3 49.1953C1101.64 49.5703 1101.81 50 1101.81 50.4844C1101.81 51 1101.62 51.4297 1101.23 51.7734L1087.68 63.4219L1102.21 78.2812C1102.56 78.625 1102.73 79.0234 1102.73 79.4766C1102.73 79.9609 1102.54 80.3828 1102.17 80.7422C1101.79 81.1016 1101.37 81.2812 1100.9 81.2812C1100.46 81.2812 1100.06 81.1016 1099.7 80.7422L1085.03 65.7656L1081.85 68.5547C1081.83 71.6172 1081.81 74.0703 1081.8 75.9141C1081.78 77.7422 1081.77 78.9688 1081.75 79.5938C1081.75 80.1094 1081.56 80.5312 1081.19 80.8594C1080.81 81.1719 1080.4 81.3281 1079.95 81.3281C1079.31 81.3281 1078.86 81.1094 1078.61 80.6719C1078.36 80.2188 1078.24 79.5859 1078.24 78.7734ZM1114.49 81.4922C1114 81.4922 1113.59 81.3203 1113.25 80.9766C1112.9 80.6328 1112.73 80.2188 1112.73 79.7344V79.7109L1112.71 50.2734V50.25C1112.71 49.7969 1112.87 49.3906 1113.2 49.0312C1113.54 48.6719 1113.93 48.4922 1114.35 48.4922C1114.93 48.4922 1115.38 48.6641 1115.71 49.0078C1116.05 49.3359 1116.22 49.75 1116.22 50.25V50.2734L1116.25 79.7109V79.7344C1116.25 80.2188 1116.07 80.6328 1115.73 80.9766C1115.39 81.3203 1114.97 81.4922 1114.49 81.4922ZM1126.7 50.2734C1126.7 49.7734 1126.87 49.3594 1127.21 49.0312C1127.57 48.6875 1128.01 48.5156 1128.52 48.5156C1129.07 48.5156 1129.52 48.75 1129.86 49.2188L1148.61 74.4375V50.3438C1148.61 49.8594 1148.78 49.4453 1149.12 49.1016C1149.47 48.7578 1149.88 48.5859 1150.37 48.5859C1150.85 48.5859 1151.27 48.7578 1151.61 49.1016C1151.95 49.4453 1152.12 49.8594 1152.12 50.3438V50.3672L1152.1 79.7109C1152.1 80.2109 1151.92 80.6328 1151.56 80.9766C1151.22 81.3047 1150.79 81.4688 1150.27 81.4688C1149.74 81.4688 1149.3 81.2344 1148.94 80.7656L1130.21 55.5703V79.6875C1130.21 80.1719 1130.04 80.5859 1129.7 80.9297C1129.35 81.2734 1128.94 81.4453 1128.45 81.4453C1127.97 81.4453 1127.55 81.2734 1127.21 80.9297C1126.87 80.5859 1126.7 80.1719 1126.7 79.6875V50.2734ZM1162.1 65.3672C1162.1 63.0859 1162.5 60.9297 1163.28 58.8984C1164.07 56.8672 1165.2 55.0703 1166.65 53.5078C1168.12 51.9453 1169.86 50.7188 1171.88 49.8281C1173.89 48.9219 1176.12 48.4688 1178.56 48.4688C1180.84 48.4688 1182.89 48.7734 1184.72 49.3828C1186.55 49.9922 1188.27 50.875 1189.88 52.0312C1190.39 52.375 1190.65 52.8594 1190.65 53.4844C1190.65 53.9688 1190.48 54.3828 1190.14 54.7266C1189.79 55.0703 1189.38 55.2422 1188.89 55.2422C1188.5 55.2422 1188.16 55.1328 1187.86 54.9141C1186.6 54.0234 1185.17 53.3203 1183.57 52.8047C1181.98 52.2734 1180.35 52.0078 1178.68 52.0078C1176.14 52.0078 1173.89 52.6094 1171.9 53.8125C1169.93 55 1168.39 56.6016 1167.26 58.6172C1166.14 60.6172 1165.57 62.8359 1165.57 65.2734C1165.57 67.7734 1166.11 69.9688 1167.19 71.8594C1168.28 73.7344 1169.79 75.1953 1171.71 76.2422C1173.64 77.2891 1175.86 77.8125 1178.39 77.8125C1179.86 77.8125 1181.31 77.6484 1182.73 77.3203C1184.17 76.9766 1185.46 76.6016 1186.6 76.1953L1186.53 67.4062H1178.79C1178.31 67.4062 1177.89 67.2344 1177.55 66.8906C1177.21 66.5469 1177.03 66.1328 1177.03 65.6484C1177.03 65.1641 1177.21 64.75 1177.55 64.4062C1177.89 64.0625 1178.31 63.8906 1178.79 63.8906H1188.28C1188.77 63.8906 1189.18 64.0625 1189.53 64.4062C1189.87 64.7344 1190.04 65.1406 1190.04 65.625L1190.14 77.3906V77.4141C1190.14 77.7422 1190.03 78.0625 1189.81 78.375C1189.6 78.6875 1189.35 78.9062 1189.03 79.0312C1187.57 79.625 1185.94 80.1641 1184.16 80.6484C1182.38 81.1172 1180.51 81.3516 1178.56 81.3516C1175.37 81.3516 1172.53 80.6875 1170.05 79.3594C1167.58 78.0156 1165.64 76.1484 1164.21 73.7578C1162.81 71.3516 1162.1 68.5547 1162.1 65.3672ZM1202.27 48.5859C1202.72 48.5859 1203.15 48.75 1203.54 49.0781C1203.94 49.3906 1204.15 49.7734 1204.15 50.2266L1203.54 71.6953C1203.54 72.1484 1203.44 72.5391 1203.23 72.8672C1203.05 73.1797 1202.72 73.3359 1202.27 73.3359C1201.82 73.3359 1201.49 73.1797 1201.29 72.8672C1201.08 72.5391 1200.98 72.1484 1200.98 71.6953L1200.37 50.2266C1200.37 49.7734 1200.58 49.3906 1200.98 49.0781C1201.39 48.75 1201.82 48.5859 1202.27 48.5859ZM1202.39 76.9922C1203.01 76.9922 1203.55 77.2109 1203.98 77.6484C1204.42 78.0859 1204.64 78.6172 1204.64 79.2422C1204.64 79.8672 1204.42 80.3984 1203.98 80.8359C1203.55 81.2734 1203.01 81.4922 1202.39 81.4922C1201.76 81.4922 1201.23 81.2734 1200.8 80.8359C1200.36 80.3984 1200.14 79.8672 1200.14 79.2422C1200.14 78.6172 1200.36 78.0859 1200.8 77.6484C1201.23 77.2109 1201.76 76.9922 1202.39 76.9922Z" fill="black"/>
</svg>
