<svg width="397" height="325" viewBox="0 0 397 325" fill="none" xmlns="http://www.w3.org/2000/svg">
<path fill-rule="evenodd" clip-rule="evenodd" d="M220 0.440642C212.338 1.21464 207.661 2.64564 199.5 6.71464C191.953 10.4776 187.386 13.9436 178.25 22.8396C174.262 26.7216 171 29.6216 171 29.2836C171 27.6266 167.778 11.5446 166.877 8.70164C165.009 2.81264 163.601 2.44864 142.712 2.44864C123.688 2.44864 120.899 2.89964 119.096 6.26964C118.573 7.24664 109.063 50.7536 97.962 102.954L77.779 197.862L80.358 200.08C84.971 204.049 96.326 205.853 117 205.904C133.556 205.944 135.92 205.739 139.496 203.949L143.491 201.949L155.052 147.449C161.41 117.474 167.344 90.8216 168.238 88.2206C175.132 68.1696 197.52 54.7536 218.333 58.2026C227.346 59.6956 233.178 62.7706 241.088 70.1986C245.609 74.4436 248.55 76.4486 250.258 76.4486C252.192 76.4486 255.517 73.5026 264.651 63.6986C289.625 36.8916 289 37.6556 289 33.9466C289 23.5226 256.076 2.87164 236.316 0.90164C233.117 0.58264 229.6 0.200641 228.5 0.0526413C227.4 -0.0953587 223.575 0.0796418 220 0.440642ZM252 97.4746C207.313 101.641 178.912 127.596 175.425 167.451C173.838 185.597 179.674 201.277 192.458 213.217C201.408 221.575 210.361 226.402 229 232.917C245.011 238.514 250.424 241.434 252.604 245.651C256.214 252.63 252.097 261.786 243.448 266.018C238.858 268.264 236.621 268.694 229.25 268.746C214.541 268.85 204.715 264.51 191.523 252.08C187.383 248.18 184.736 246.449 182.914 246.449C180.973 246.449 176.21 249.978 164.743 259.912C156.196 267.317 148.258 274.577 147.102 276.047C143.766 280.287 144.378 284.391 149.346 291.089C167.533 315.615 196.948 327.247 233.395 324.328C261.843 322.049 283.209 312.664 299.67 295.217C313.06 281.025 321.063 260.622 321.095 240.596C321.111 230.343 319.847 224.315 315.918 215.904C307.995 198.945 295.978 190.274 266 179.88C247.346 173.413 241.513 170.361 240.108 166.329C238.399 161.427 241.159 156.62 247.5 153.449C251.763 151.318 253.827 150.958 261.5 151.009C272.587 151.082 276.596 152.709 286.841 161.296C290.878 164.68 294.336 167.449 294.526 167.449C297.611 167.449 334.164 141.07 335.346 137.99C336.736 134.368 335.794 132.302 329.867 125.966C308.842 103.49 284.197 94.4716 252 97.4746ZM17.225 148.499C7.75101 157.326 0 164.803 0 165.114C0 165.964 24.141 199.449 24.753 199.449C26.334 199.449 36 190.016 36 188.474C36 187.472 32.769 182.27 28.82 176.913L21.641 167.174L26.07 163.133C39.754 150.648 45.093 145.135 44.641 143.956C43.566 141.154 36.75 132.449 35.631 132.449C34.981 132.449 26.699 139.671 17.225 148.499ZM365.712 139.233C363.121 141.865 361 144.564 361 145.231C361 145.898 364.238 150.808 368.195 156.143L375.39 165.842L364.195 176.396C357.527 182.681 352.999 187.721 353 188.858C353 191.627 360.831 201.666 362.302 200.784C364.83 199.269 397 169.028 397 168.167C397 166.236 373.416 134.501 371.962 134.476C371.117 134.461 368.304 136.602 365.712 139.233ZM48.481 217.699C47.85 219.428 41 252.244 41 253.539C41 254.116 41.994 254.444 43.208 254.269C45.13 253.99 45.644 252.813 47.172 245.201C49.263 234.778 50.139 232.945 53.98 230.959C57.941 228.911 60.339 229.061 62.541 231.494C64.247 233.379 64.292 234.103 63.124 240.744C62.427 244.707 61.605 249.411 61.298 251.199C60.816 253.996 61.026 254.449 62.802 254.449C65.141 254.449 65.271 254.118 67.539 242.399C69.023 234.733 69.039 233.478 67.694 230.259C65.659 225.388 61.019 223.763 55.036 225.825L50.827 227.275L51.462 224.745C53.376 217.119 53.346 216.449 51.094 216.449C49.908 216.449 48.732 217.012 48.481 217.699ZM140.489 217.699C139.899 219.341 133 252.361 133 253.54C133 254.04 133.879 254.449 134.953 254.449C136.358 254.449 137.198 253.397 137.947 250.699C138.52 248.637 138.991 246.456 138.994 245.854C138.997 245.252 139.861 243.979 140.914 243.026C142.764 241.353 142.959 241.516 146.664 247.852C149.573 252.826 151.044 254.415 152.75 254.43C153.988 254.44 155 254.138 155 253.757C155 253.377 153.2 250.035 151 246.332C148.8 242.629 147 239.174 147 238.654C147 238.135 150.183 235.063 154.074 231.829L161.149 225.949L158.013 225.631C155.406 225.367 153.783 226.273 148.395 231.004C144.829 234.134 141.73 236.513 141.508 236.29C141.285 236.067 141.98 231.872 143.051 226.968C144.123 222.063 145 217.69 145 217.25C145 215.94 140.976 216.341 140.489 217.699ZM85 225.614C77.363 227.806 71.07 235.612 71.026 242.949C71.004 246.595 74.071 251.881 77.17 253.54C80.31 255.221 87.111 254.96 90.871 253.016C93.726 251.539 94 251.537 94 252.993C94 254.063 94.717 254.483 96.178 254.269C98.114 253.984 98.663 252.507 101.13 240.949C102.656 233.799 103.926 227.387 103.952 226.699C104.019 224.947 100.059 225.131 99.376 226.911C98.897 228.161 98.501 228.175 96.657 227.01C93.498 225.012 88.981 224.471 85 225.614ZM120.5 225.403C113.865 226.949 107.802 232.758 106.056 239.241C103.198 249.857 112.237 257.922 122.571 253.975C127.681 252.024 129.229 250.437 127.985 248.425C127.208 247.167 126.682 247.205 124.138 248.708C119.835 251.25 115.396 250.936 112.333 247.873C108.66 244.2 109.499 238.483 114.436 233.547C117.602 230.38 118.571 229.979 122.759 230.094C125.367 230.167 128.579 230.388 129.899 230.587C133.107 231.071 133.633 229.09 130.787 227.246C127.648 225.214 124.065 224.572 120.5 225.403ZM94.927 232.084C98.235 236.288 97.659 240.82 93.213 245.587C90.123 248.899 88.579 249.742 84.83 250.165C81.054 250.59 79.856 250.305 78.117 248.566C75.567 246.016 75.318 240.669 77.549 236.355C81.044 229.595 91.038 227.139 94.927 232.084Z" fill="url(#paint0_linear)"/>
<path fill-rule="evenodd" clip-rule="evenodd" d="M220 0.440642C212.338 1.21464 207.661 2.64564 199.5 6.71464C191.953 10.4776 187.386 13.9436 178.25 22.8396C174.262 26.7216 171 29.6216 171 29.2836C171 27.6266 167.778 11.5446 166.877 8.70164C165.009 2.81264 163.601 2.44864 142.712 2.44864C123.688 2.44864 120.899 2.89964 119.096 6.26964C118.573 7.24664 109.063 50.7536 97.962 102.954L77.779 197.862L80.358 200.08C84.971 204.049 96.326 205.853 117 205.904C133.556 205.944 135.92 205.739 139.496 203.949L143.491 201.949L155.052 147.449C161.41 117.474 167.344 90.8216 168.238 88.2206C175.132 68.1696 197.52 54.7536 218.333 58.2026C227.346 59.6956 233.178 62.7706 241.088 70.1986C245.609 74.4436 248.55 76.4486 250.258 76.4486C252.192 76.4486 255.517 73.5026 264.651 63.6986C289.625 36.8916 289 37.6556 289 33.9466C289 23.5226 256.076 2.87164 236.316 0.90164C233.117 0.58264 229.6 0.200641 228.5 0.0526413C227.4 -0.0953587 223.575 0.0796418 220 0.440642ZM252 97.4746C207.313 101.641 178.912 127.596 175.425 167.451C173.838 185.597 179.674 201.277 192.458 213.217C201.408 221.575 210.361 226.402 229 232.917C245.011 238.514 250.424 241.434 252.604 245.651C256.214 252.63 252.097 261.786 243.448 266.018C238.858 268.264 236.621 268.694 229.25 268.746C214.541 268.85 204.715 264.51 191.523 252.08C187.383 248.18 184.736 246.449 182.914 246.449C180.973 246.449 176.21 249.978 164.743 259.912C156.196 267.317 148.258 274.577 147.102 276.047C143.766 280.287 144.378 284.391 149.346 291.089C167.533 315.615 196.948 327.247 233.395 324.328C261.843 322.049 283.209 312.664 299.67 295.217C313.06 281.025 321.063 260.622 321.095 240.596C321.111 230.343 319.847 224.315 315.918 215.904C307.995 198.945 295.978 190.274 266 179.88C247.346 173.413 241.513 170.361 240.108 166.329C238.399 161.427 241.159 156.62 247.5 153.449C251.763 151.318 253.827 150.958 261.5 151.009C272.587 151.082 276.596 152.709 286.841 161.296C290.878 164.68 294.336 167.449 294.526 167.449C297.611 167.449 334.164 141.07 335.346 137.99C336.736 134.368 335.794 132.302 329.867 125.966C308.842 103.49 284.197 94.4716 252 97.4746ZM17.225 148.499C7.75101 157.326 0 164.803 0 165.114C0 165.964 24.141 199.449 24.753 199.449C26.334 199.449 36 190.016 36 188.474C36 187.472 32.769 182.27 28.82 176.913L21.641 167.174L26.07 163.133C39.754 150.648 45.093 145.135 44.641 143.956C43.566 141.154 36.75 132.449 35.631 132.449C34.981 132.449 26.699 139.671 17.225 148.499ZM365.712 139.233C363.121 141.865 361 144.564 361 145.231C361 145.898 364.238 150.808 368.195 156.143L375.39 165.842L364.195 176.396C357.527 182.681 352.999 187.721 353 188.858C353 191.627 360.831 201.666 362.302 200.784C364.83 199.269 397 169.028 397 168.167C397 166.236 373.416 134.501 371.962 134.476C371.117 134.461 368.304 136.602 365.712 139.233ZM48.481 217.699C47.85 219.428 41 252.244 41 253.539C41 254.116 41.994 254.444 43.208 254.269C45.13 253.99 45.644 252.813 47.172 245.201C49.263 234.778 50.139 232.945 53.98 230.959C57.941 228.911 60.339 229.061 62.541 231.494C64.247 233.379 64.292 234.103 63.124 240.744C62.427 244.707 61.605 249.411 61.298 251.199C60.816 253.996 61.026 254.449 62.802 254.449C65.141 254.449 65.271 254.118 67.539 242.399C69.023 234.733 69.039 233.478 67.694 230.259C65.659 225.388 61.019 223.763 55.036 225.825L50.827 227.275L51.462 224.745C53.376 217.119 53.346 216.449 51.094 216.449C49.908 216.449 48.732 217.012 48.481 217.699ZM140.489 217.699C139.899 219.341 133 252.361 133 253.54C133 254.04 133.879 254.449 134.953 254.449C136.358 254.449 137.198 253.397 137.947 250.699C138.52 248.637 138.991 246.456 138.994 245.854C138.997 245.252 139.861 243.979 140.914 243.026C142.764 241.353 142.959 241.516 146.664 247.852C149.573 252.826 151.044 254.415 152.75 254.43C153.988 254.44 155 254.138 155 253.757C155 253.377 153.2 250.035 151 246.332C148.8 242.629 147 239.174 147 238.654C147 238.135 150.183 235.063 154.074 231.829L161.149 225.949L158.013 225.631C155.406 225.367 153.783 226.273 148.395 231.004C144.829 234.134 141.73 236.513 141.508 236.29C141.285 236.067 141.98 231.872 143.051 226.968C144.123 222.063 145 217.69 145 217.25C145 215.94 140.976 216.341 140.489 217.699ZM85 225.614C77.363 227.806 71.07 235.612 71.026 242.949C71.004 246.595 74.071 251.881 77.17 253.54C80.31 255.221 87.111 254.96 90.871 253.016C93.726 251.539 94 251.537 94 252.993C94 254.063 94.717 254.483 96.178 254.269C98.114 253.984 98.663 252.507 101.13 240.949C102.656 233.799 103.926 227.387 103.952 226.699C104.019 224.947 100.059 225.131 99.376 226.911C98.897 228.161 98.501 228.175 96.657 227.01C93.498 225.012 88.981 224.471 85 225.614ZM120.5 225.403C113.865 226.949 107.802 232.758 106.056 239.241C103.198 249.857 112.237 257.922 122.571 253.975C127.681 252.024 129.229 250.437 127.985 248.425C127.208 247.167 126.682 247.205 124.138 248.708C119.835 251.25 115.396 250.936 112.333 247.873C108.66 244.2 109.499 238.483 114.436 233.547C117.602 230.38 118.571 229.979 122.759 230.094C125.367 230.167 128.579 230.388 129.899 230.587C133.107 231.071 133.633 229.09 130.787 227.246C127.648 225.214 124.065 224.572 120.5 225.403ZM94.927 232.084C98.235 236.288 97.659 240.82 93.213 245.587C90.123 248.899 88.579 249.742 84.83 250.165C81.054 250.59 79.856 250.305 78.117 248.566C75.567 246.016 75.318 240.669 77.549 236.355C81.044 229.595 91.038 227.139 94.927 232.084Z" fill="url(#paint1_linear)"/>
<path fill-rule="evenodd" clip-rule="evenodd" d="M220 0.440642C212.338 1.21464 207.661 2.64564 199.5 6.71464C191.953 10.4776 187.386 13.9436 178.25 22.8396C174.262 26.7216 171 29.6216 171 29.2836C171 27.6266 167.778 11.5446 166.877 8.70164C165.009 2.81264 163.601 2.44864 142.712 2.44864C123.688 2.44864 120.899 2.89964 119.096 6.26964C118.573 7.24664 109.063 50.7536 97.962 102.954L77.779 197.862L80.358 200.08C84.971 204.049 96.326 205.853 117 205.904C133.556 205.944 135.92 205.739 139.496 203.949L143.491 201.949L155.052 147.449C161.41 117.474 167.344 90.8216 168.238 88.2206C175.132 68.1696 197.52 54.7536 218.333 58.2026C227.346 59.6956 233.178 62.7706 241.088 70.1986C245.609 74.4436 248.55 76.4486 250.258 76.4486C252.192 76.4486 255.517 73.5026 264.651 63.6986C289.625 36.8916 289 37.6556 289 33.9466C289 23.5226 256.076 2.87164 236.316 0.90164C233.117 0.58264 229.6 0.200641 228.5 0.0526413C227.4 -0.0953587 223.575 0.0796418 220 0.440642ZM252 97.4746C207.313 101.641 178.912 127.596 175.425 167.451C173.838 185.597 179.674 201.277 192.458 213.217C201.408 221.575 210.361 226.402 229 232.917C245.011 238.514 250.424 241.434 252.604 245.651C256.214 252.63 252.097 261.786 243.448 266.018C238.858 268.264 236.621 268.694 229.25 268.746C214.541 268.85 204.715 264.51 191.523 252.08C187.383 248.18 184.736 246.449 182.914 246.449C180.973 246.449 176.21 249.978 164.743 259.912C156.196 267.317 148.258 274.577 147.102 276.047C143.766 280.287 144.378 284.391 149.346 291.089C167.533 315.615 196.948 327.247 233.395 324.328C261.843 322.049 283.209 312.664 299.67 295.217C313.06 281.025 321.063 260.622 321.095 240.596C321.111 230.343 319.847 224.315 315.918 215.904C307.995 198.945 295.978 190.274 266 179.88C247.346 173.413 241.513 170.361 240.108 166.329C238.399 161.427 241.159 156.62 247.5 153.449C251.763 151.318 253.827 150.958 261.5 151.009C272.587 151.082 276.596 152.709 286.841 161.296C290.878 164.68 294.336 167.449 294.526 167.449C297.611 167.449 334.164 141.07 335.346 137.99C336.736 134.368 335.794 132.302 329.867 125.966C308.842 103.49 284.197 94.4716 252 97.4746ZM17.225 148.499C7.75101 157.326 0 164.803 0 165.114C0 165.964 24.141 199.449 24.753 199.449C26.334 199.449 36 190.016 36 188.474C36 187.472 32.769 182.27 28.82 176.913L21.641 167.174L26.07 163.133C39.754 150.648 45.093 145.135 44.641 143.956C43.566 141.154 36.75 132.449 35.631 132.449C34.981 132.449 26.699 139.671 17.225 148.499ZM365.712 139.233C363.121 141.865 361 144.564 361 145.231C361 145.898 364.238 150.808 368.195 156.143L375.39 165.842L364.195 176.396C357.527 182.681 352.999 187.721 353 188.858C353 191.627 360.831 201.666 362.302 200.784C364.83 199.269 397 169.028 397 168.167C397 166.236 373.416 134.501 371.962 134.476C371.117 134.461 368.304 136.602 365.712 139.233ZM48.481 217.699C47.85 219.428 41 252.244 41 253.539C41 254.116 41.994 254.444 43.208 254.269C45.13 253.99 45.644 252.813 47.172 245.201C49.263 234.778 50.139 232.945 53.98 230.959C57.941 228.911 60.339 229.061 62.541 231.494C64.247 233.379 64.292 234.103 63.124 240.744C62.427 244.707 61.605 249.411 61.298 251.199C60.816 253.996 61.026 254.449 62.802 254.449C65.141 254.449 65.271 254.118 67.539 242.399C69.023 234.733 69.039 233.478 67.694 230.259C65.659 225.388 61.019 223.763 55.036 225.825L50.827 227.275L51.462 224.745C53.376 217.119 53.346 216.449 51.094 216.449C49.908 216.449 48.732 217.012 48.481 217.699ZM140.489 217.699C139.899 219.341 133 252.361 133 253.54C133 254.04 133.879 254.449 134.953 254.449C136.358 254.449 137.198 253.397 137.947 250.699C138.52 248.637 138.991 246.456 138.994 245.854C138.997 245.252 139.861 243.979 140.914 243.026C142.764 241.353 142.959 241.516 146.664 247.852C149.573 252.826 151.044 254.415 152.75 254.43C153.988 254.44 155 254.138 155 253.757C155 253.377 153.2 250.035 151 246.332C148.8 242.629 147 239.174 147 238.654C147 238.135 150.183 235.063 154.074 231.829L161.149 225.949L158.013 225.631C155.406 225.367 153.783 226.273 148.395 231.004C144.829 234.134 141.73 236.513 141.508 236.29C141.285 236.067 141.98 231.872 143.051 226.968C144.123 222.063 145 217.69 145 217.25C145 215.94 140.976 216.341 140.489 217.699ZM85 225.614C77.363 227.806 71.07 235.612 71.026 242.949C71.004 246.595 74.071 251.881 77.17 253.54C80.31 255.221 87.111 254.96 90.871 253.016C93.726 251.539 94 251.537 94 252.993C94 254.063 94.717 254.483 96.178 254.269C98.114 253.984 98.663 252.507 101.13 240.949C102.656 233.799 103.926 227.387 103.952 226.699C104.019 224.947 100.059 225.131 99.376 226.911C98.897 228.161 98.501 228.175 96.657 227.01C93.498 225.012 88.981 224.471 85 225.614ZM120.5 225.403C113.865 226.949 107.802 232.758 106.056 239.241C103.198 249.857 112.237 257.922 122.571 253.975C127.681 252.024 129.229 250.437 127.985 248.425C127.208 247.167 126.682 247.205 124.138 248.708C119.835 251.25 115.396 250.936 112.333 247.873C108.66 244.2 109.499 238.483 114.436 233.547C117.602 230.38 118.571 229.979 122.759 230.094C125.367 230.167 128.579 230.388 129.899 230.587C133.107 231.071 133.633 229.09 130.787 227.246C127.648 225.214 124.065 224.572 120.5 225.403ZM94.927 232.084C98.235 236.288 97.659 240.82 93.213 245.587C90.123 248.899 88.579 249.742 84.83 250.165C81.054 250.59 79.856 250.305 78.117 248.566C75.567 246.016 75.318 240.669 77.549 236.355C81.044 229.595 91.038 227.139 94.927 232.084Z" fill="url(#paint2_radial)"/>
<defs>
<linearGradient id="paint0_linear" x1="38" y1="161.979" x2="65" y2="166.979" gradientUnits="userSpaceOnUse">
<stop stop-color="#FFB9BA"/>
<stop offset="0.65625" stop-color="white" stop-opacity="0"/>
</linearGradient>
<linearGradient id="paint1_linear" x1="341.5" y1="166.479" x2="353" y2="168.479" gradientUnits="userSpaceOnUse">
<stop stop-color="#FFB9BA" stop-opacity="0"/>
<stop offset="1" stop-color="#FFB9BA"/>
</linearGradient>
<radialGradient id="paint2_radial" cx="0" cy="0" r="1" gradientUnits="userSpaceOnUse" gradientTransform="translate(270 -287.021) rotate(99.3887) scale(3264.23 152.668)">
<stop offset="0.9999" stop-color="white"/>
<stop offset="1" stop-color="white" stop-opacity="0"/>
</radialGradient>
</defs>
</svg>
